<svg width="17" height="18" viewBox="0 0 17 18" fill="none" xmlns="http://www.w3.org/2000/svg">
<path d="M8.5 0C6.22851 0 4.3871 1.83389 4.3871 4.09611C4.3871 6.35833 6.22851 8.19222 8.5 8.19222C10.7715 8.19222 12.6129 6.35833 12.6129 4.09611C12.6129 1.83389 10.7715 0 8.5 0Z" fill="white"/>
<path d="M4.1129 10.3768C1.84141 10.3768 0 12.2107 0 14.4729V15.7709C0 16.5936 0.598711 17.2951 1.41404 17.4277C6.10695 18.1908 10.8931 18.1908 15.586 17.4277C16.4013 17.2951 17 16.5936 17 15.7709V14.4729C17 12.2107 15.1586 10.3768 12.8871 10.3768H12.5132C12.3109 10.3768 12.1098 10.4087 11.9175 10.4712L10.9682 10.7799C9.3644 11.3015 7.6356 11.3015 6.0318 10.7799L5.08253 10.4712C4.89018 10.4087 4.68911 10.3768 4.48676 10.3768H4.1129Z" fill="white"/>
</svg>
