<svg width="192" height="51" viewBox="0 0 192 51" fill="none" xmlns="http://www.w3.org/2000/svg">
<g filter="url(#filter0_d)">
<path fill-rule="evenodd" clip-rule="evenodd" d="M18.1282 4.04782C17.0264 4.22507 15.5837 4.7917 15.0626 5.25276C14.5986 5.66275 14.1484 6.14688 14.1041 6.28339C14.0785 6.36195 14.0263 6.42627 13.9879 6.42627C13.6445 6.42627 12.7435 9.12142 12.7258 10.2016C12.7199 10.5463 12.6909 10.8134 12.6608 10.7953C12.6308 10.7776 12.6067 10.9195 12.6072 11.111C12.6077 11.3025 12.6043 11.9658 12.6003 12.5845L12.5924 13.7099H10.296H8V14.7327V15.7555H10.296H12.592L12.6126 25.8825L12.6333 36.0096L13.8019 36.0327L14.9706 36.0553V25.9056V15.7555H18.6611H22.3516V14.7327V13.7099H18.6522H14.9529L14.9922 11.8888C15.0365 9.83879 15.1094 9.43469 15.6319 8.34023C16.618 6.27357 19.2885 5.55571 21.6588 6.7194C22.0175 6.89567 22.3565 7.03463 22.4126 7.02874C22.4682 7.02285 22.4972 7.04494 22.4766 7.07784C22.417 7.17408 22.8456 7.37294 22.9106 7.27915C23.5252 6.39583 23.9911 5.66324 23.9887 5.58517C23.9803 5.35243 22.1735 4.44995 21.1554 4.17008C20.6043 4.01885 18.7693 3.94471 18.1282 4.04782ZM52.6136 20.0518V36.0509H53.8029H54.9923V20.0518V4.05322H53.8029H52.6136V20.0518ZM61.1017 20.0518V36.0509H62.2704H63.439V20.0518V4.05322H62.2704H61.1017V20.0518ZM78.7383 13.1398C77.2927 13.3043 76.0108 13.6731 74.7792 14.279C74.3176 14.5058 73.9205 14.6919 73.8964 14.6919C73.8561 14.6919 73.4801 14.9473 72.9113 15.3622C72.494 15.6666 70.6562 17.5501 70.6562 17.6738C70.6562 17.6974 70.5218 17.9262 70.357 18.183C69.5313 19.4714 68.7932 21.4664 68.6362 22.8343C68.4867 24.1355 68.5334 27.0217 68.7017 26.9176C68.7435 26.8916 68.7548 26.9583 68.7268 27.0688C68.5772 27.6629 69.5968 30.3841 70.3718 31.4609C70.5282 31.6779 70.6562 31.8832 70.6562 31.9165C70.6562 31.9769 71.1281 32.5657 71.5995 33.093C71.7348 33.2447 71.9931 33.4706 72.1737 33.5948C72.3538 33.719 72.649 33.9537 72.8296 34.1158C73.0097 34.2778 73.2036 34.4109 73.2602 34.4119C73.3163 34.4133 73.3625 34.4443 73.3625 34.4811C73.3625 34.6358 75.5704 35.7435 76.0605 35.8343C76.1329 35.8476 76.3395 35.8996 76.5201 35.9502C78.2128 36.4206 81.5692 36.5188 82.602 36.1274C82.7241 36.0813 82.793 36.0936 82.821 36.1672C82.8599 36.2684 85.3699 38.3419 85.4531 38.3419C85.4742 38.3419 85.5874 38.4308 85.705 38.5393C86.2507 39.044 87.0045 39.153 87.3067 38.7715C87.5153 38.5084 87.5001 37.5298 87.2654 36.1446C87.1974 35.7445 87.1714 35.5373 87.0971 34.8233L87.0419 34.2911L87.5847 33.8521C88.1471 33.3974 89.3547 32.1498 89.3547 32.0236C89.3547 31.9843 89.427 31.8743 89.5156 31.7796C91.0287 30.1592 91.968 25.2747 91.3352 22.3207C91.0242 20.8708 90.049 18.3588 89.7444 18.2242C89.7104 18.2095 89.6829 18.1447 89.6829 18.0809C89.6829 18.0175 89.646 17.965 89.6007 17.965C89.5554 17.965 89.5185 17.9242 89.5185 17.8747C89.5185 17.6616 88.3636 16.4149 87.2634 15.4407C85.492 13.8719 81.582 12.8168 78.7383 13.1398ZM149.058 13.3068C147.732 13.4747 146.412 13.8769 145.204 14.4808C144.911 14.6276 144.532 14.8083 144.364 14.8819C144.194 14.9561 144.056 15.0538 144.056 15.0995C144.056 15.1451 144.025 15.1736 143.988 15.1623C143.837 15.1171 141.927 16.8249 141.512 17.3768C141.4 17.5255 141.271 17.693 141.227 17.748C141.181 17.803 141.089 17.9454 141.022 18.0642C140.954 18.183 140.711 18.6053 140.48 19.0025C139.887 20.0272 139.418 21.3053 139.253 22.3458C139.224 22.5245 139.188 22.6915 139.173 22.717C139.157 22.7425 139.105 23.2213 139.058 23.781C138.977 24.7331 138.998 25.2786 139.176 26.8429C139.317 28.0754 140.107 30.1828 140.814 31.2085C140.973 31.4388 141.104 31.6465 141.104 31.6696C141.104 31.8837 142.595 33.4677 143.18 33.8747C143.303 33.9606 143.504 34.1227 143.624 34.2346C145.784 36.2315 151.393 37.0834 154.327 35.8603C154.474 35.799 154.622 35.7435 154.656 35.7366C155.681 35.5382 158.152 33.6159 159.196 32.2048L159.679 31.5532L159.701 33.802L159.722 36.0509H160.91H162.098V24.7576V13.4644H160.91H159.722L159.701 15.8168L159.679 18.1698L159.493 17.8221C159.39 17.6306 159.27 17.474 159.226 17.474C159.182 17.474 159.146 17.4269 159.146 17.3689C159.146 17.2255 157.391 15.45 156.931 15.1294C154.918 13.7222 151.688 12.9744 149.058 13.3068ZM93.0452 13.5631C93.0452 13.6176 93.1893 14.0502 93.366 14.5245C94.0514 16.3697 94.5956 17.8668 94.7797 18.4153C94.886 18.7305 95.0001 19.0005 95.0346 19.0158C95.0685 19.0305 95.0779 19.0727 95.0552 19.1095C95.0159 19.1729 95.3534 20.1603 96.0768 22.0978C96.8035 24.0447 97.3965 25.7009 97.427 25.8688C97.4447 25.966 97.4959 26.1148 97.5412 26.1992C97.5864 26.2842 97.6981 26.596 97.7896 26.8921C97.8812 27.1886 98.1991 28.0906 98.4963 28.8968C99.318 31.125 99.7284 32.2652 99.9513 32.9408C100.063 33.2786 100.354 34.1163 100.598 34.8027L101.041 36.0504H102.364L103.688 36.0509L103.867 35.6094C103.966 35.3664 104.054 35.1179 104.063 35.0571C104.073 34.9957 104.109 34.8994 104.145 34.843C104.18 34.786 104.349 34.3259 104.521 33.8197C104.692 33.314 104.944 32.6054 105.082 32.2455C105.219 31.8851 105.598 30.8908 105.924 30.036C106.251 29.1806 106.518 28.4348 106.52 28.3788C106.521 28.3224 106.545 28.2762 106.574 28.2762C106.602 28.2762 106.693 28.0646 106.775 27.8058C107.029 27.0079 107.134 26.701 107.35 26.1295C107.464 25.8266 107.573 25.4951 107.593 25.393C107.612 25.2909 107.773 24.8023 107.951 24.3074C108.129 23.8124 108.278 23.3789 108.281 23.344C108.284 23.3091 108.385 22.9856 108.506 22.6252C108.626 22.2643 108.734 21.9245 108.745 21.87C108.757 21.8155 108.805 21.6761 108.853 21.5612C108.9 21.4458 108.985 21.188 109.04 20.9881C109.095 20.7883 109.191 20.5089 109.253 20.367C109.315 20.2251 109.365 20.0425 109.365 19.961C109.365 19.8794 109.52 19.3457 109.709 18.7747L110.052 17.7357L110.736 19.8353C111.562 22.3674 111.806 23.1643 111.965 23.837C112.031 24.1183 112.119 24.3481 112.16 24.3481C112.202 24.3481 112.236 24.4223 112.236 24.5131C112.236 24.7783 112.502 25.6576 112.582 25.6576C112.622 25.6576 112.633 25.694 112.605 25.7382C112.578 25.7829 112.683 26.1418 112.838 26.5361C113.244 27.5623 113.755 28.9135 114.128 29.9461C114.305 30.4366 114.497 30.8948 114.553 30.964C114.613 31.0386 114.617 31.0676 114.563 31.0352C114.477 30.9836 114.643 31.4501 115.892 34.7605L116.377 36.0479L117.689 36.0474L119.002 36.0469L119.388 34.9235C119.924 33.3645 121.166 29.928 121.31 29.6054C121.376 29.4586 121.407 29.3019 121.379 29.2572C121.352 29.213 121.368 29.1767 121.416 29.1767C121.464 29.1767 121.503 29.1183 121.503 29.0471C121.503 28.9219 122.328 26.5228 122.486 26.1894C122.66 25.8221 123.625 23.0892 123.641 22.9163C123.646 22.8712 123.676 22.7975 123.709 22.7523C123.743 22.7077 123.819 22.5049 123.879 22.3026C124.009 21.8646 124.556 20.3179 125.122 18.7835C125.347 18.1756 125.677 17.2815 125.857 16.7954C126.036 16.3098 126.164 15.8812 126.14 15.8433C126.116 15.805 126.152 15.7284 126.22 15.673C126.287 15.6175 126.342 15.4987 126.342 15.4093C126.342 15.3194 126.471 14.9021 126.629 14.4818C127.042 13.3785 127.122 13.4644 125.691 13.4644C124.308 13.4644 124.262 13.4816 124.166 14.0526C124.133 14.2427 124.023 14.6207 123.921 14.8927C123.818 15.1648 123.729 15.4147 123.723 15.4481C123.718 15.481 123.695 15.5546 123.674 15.6116C123.653 15.6681 123.529 16.0275 123.398 16.4105C123.267 16.793 123.029 17.4651 122.87 17.9036C122.71 18.3426 122.601 18.7015 122.626 18.7015C122.651 18.7015 122.635 18.7477 122.59 18.8041C122.516 18.8969 122.211 19.7302 122.203 19.8608C122.201 19.8912 122.175 19.9408 122.144 19.9713C122.113 20.0022 122.108 20.0788 122.133 20.1416C122.157 20.205 122.144 20.2565 122.104 20.2565C122.021 20.2565 121.785 20.9808 121.817 21.1364C121.829 21.1924 121.799 21.2386 121.753 21.2386C121.706 21.2386 121.667 21.3215 121.667 21.4227C121.667 21.5238 121.589 21.8091 121.493 22.0571C121.397 22.3045 120.989 23.4643 120.585 24.6349C120.181 25.805 119.722 27.1307 119.566 27.5809C119.409 28.0307 119.264 28.5188 119.244 28.6656C119.224 28.8119 119.17 28.996 119.125 29.0746C119.079 29.1531 118.769 30.009 118.437 30.9768C117.613 33.3714 117.658 33.282 117.529 32.7773C117.488 32.6167 117.207 31.8203 117.168 31.7545C117.142 31.7093 117.113 31.6357 117.103 31.5905C117.094 31.5458 116.976 31.1864 116.839 30.7926C116.704 30.3988 116.607 30.0767 116.625 30.0767C116.643 30.0767 116.6 29.9201 116.529 29.7291C116.459 29.5376 116.187 28.7736 115.925 28.0307C115.663 27.2883 115.238 26.0912 114.981 25.3714C114.724 24.6511 114.356 23.5645 114.164 22.9571C113.972 22.3492 113.771 21.7418 113.717 21.6068C113.663 21.4718 113.622 21.3613 113.626 21.3613C113.64 21.3613 113.068 19.7204 112.814 19.029C112.552 18.3171 112.521 18.2301 112.478 18.0877C112.464 18.0431 112.326 17.6561 112.172 17.2285C112.017 16.8008 111.86 16.3039 111.823 16.1237C111.786 15.944 111.71 15.6862 111.654 15.5512C111.598 15.4162 111.546 15.287 111.538 15.2644C111.531 15.2419 111.5 15.1594 111.47 15.0803C111.332 14.7175 111.307 14.6409 111.279 14.4975C111.263 14.413 111.197 14.2289 111.134 14.088C111.07 13.9476 110.995 13.7497 110.966 13.6485C110.903 13.4305 109.383 13.3588 109.227 13.5665C109.148 13.6706 108.724 14.8196 108.086 16.656C107.891 17.2187 107.657 17.8776 107.566 18.1206C107.476 18.3632 107.42 18.5905 107.441 18.6249C107.463 18.6593 107.45 18.7 107.414 18.7153C107.378 18.7305 107.124 19.4238 106.849 20.2565C106.345 21.7875 105.48 24.2519 105.341 24.5529C105.178 24.9069 105.022 25.4328 105.061 25.4956C105.084 25.5319 105.074 25.5742 105.04 25.5894C105.006 25.6046 104.696 26.4452 104.351 27.4582C104.007 28.4706 103.555 29.7782 103.347 30.363C103.138 30.9483 102.828 31.8238 102.657 32.3089L102.346 33.1907L102.206 32.7999C102.129 32.5848 102.066 32.3344 102.066 32.2431C102.066 32.1517 102.009 31.9951 101.939 31.8954C101.868 31.7953 101.83 31.7133 101.854 31.7133C101.877 31.7133 101.673 31.0784 101.4 30.3016C101.127 29.5253 100.765 28.4849 100.595 27.9899C100.425 27.495 100.136 26.6662 99.9533 26.1487C99.7702 25.6311 99.5566 24.9864 99.4789 24.7164C99.4012 24.4463 99.3013 24.1797 99.2565 24.1232C99.2122 24.0668 99.1965 24.0211 99.222 24.0211C99.2471 24.0211 99.1384 23.6617 98.9809 23.2232C98.823 22.7843 98.6449 22.278 98.5858 22.0978C98.5267 21.9176 98.4308 21.6598 98.3732 21.5248C98.3157 21.3898 98.2601 21.2386 98.2492 21.189C98.2182 21.0436 97.8015 19.8225 97.7217 19.6428C97.611 19.3929 97.2341 18.1992 97.1849 17.9414C97.1608 17.8157 97.1145 17.7293 97.0816 17.749C97.0491 17.7691 97.0186 17.6709 97.0132 17.5309C97.0078 17.3915 96.9615 17.2629 96.9098 17.2457C96.8587 17.2285 96.8365 17.1828 96.8601 17.144C96.8842 17.1052 96.6471 16.3628 96.3336 15.4942C96.0197 14.6251 95.7382 13.813 95.7072 13.6893L95.6516 13.4644H94.3486C93.3847 13.4644 93.0452 13.4899 93.0452 13.5631ZM166.855 14.5279V15.5919H173.623H180.392L180.24 15.8168C180.156 15.9406 179.963 16.2263 179.811 16.4512C179.659 16.6761 179.394 17.0286 179.222 17.2339C179.051 17.4391 178.911 17.6478 178.911 17.6979C178.911 17.7475 178.877 17.8 178.836 17.8152C178.738 17.8506 178.009 18.8434 178.009 18.9406C178.009 18.9819 177.978 19.0275 177.941 19.0428C177.882 19.0663 177.643 19.3865 176.608 20.8296C176.498 20.9818 176.142 21.4512 175.814 21.8729C175.488 22.2947 175.22 22.6684 175.22 22.7032C175.22 22.769 173.94 24.5332 173.72 24.7709C173.65 24.846 173.615 24.929 173.642 24.955C173.668 24.9815 173.652 25.0031 173.608 25.0031C173.521 25.0031 173.131 25.5064 172.719 26.1492C172.584 26.3603 171.974 27.2014 171.366 28.0184C170.757 28.836 169.945 29.9481 169.561 30.4907C169.178 31.0332 168.8 31.536 168.721 31.6077C168.642 31.6799 168.577 31.7697 168.577 31.8071C168.577 31.8729 168.408 32.0992 168.182 32.3364C168.122 32.3987 168.096 32.4498 168.124 32.4498C168.151 32.4498 168.133 32.4959 168.085 32.5524C168.035 32.6084 167.815 32.9123 167.594 33.2276C167.373 33.5423 167.138 33.856 167.071 33.9243C166.502 34.5027 166.117 35.1842 166.117 35.6119V36.0509H175.059H184L183.977 34.9662L183.954 33.8821L176.922 33.861C173.054 33.8497 169.89 33.8231 169.89 33.802C169.89 33.748 170.395 33.0184 170.566 32.8259C170.645 32.7375 170.709 32.6374 170.709 32.604C170.709 32.5706 170.757 32.495 170.814 32.4355C170.963 32.2809 172.294 30.4921 172.478 30.1995C172.67 29.8936 173.212 29.1473 173.519 28.7672C173.645 28.6096 173.777 28.4441 173.81 28.399C174.653 27.2515 174.974 26.8017 174.974 26.7693C174.974 26.7472 175.223 26.3976 175.528 25.9925C175.832 25.5869 176.34 24.9015 176.655 24.4694C176.971 24.0368 177.278 23.6303 177.338 23.5655C177.397 23.5011 177.428 23.4481 177.406 23.4481C177.374 23.4481 178.822 21.4693 179.263 20.9096C179.583 20.505 179.813 20.1785 179.813 20.1299C179.813 20.043 180.409 19.2416 180.529 19.167C180.588 19.1307 180.615 19.0663 180.589 19.0241C180.562 18.9819 180.575 18.947 180.617 18.947C180.658 18.947 180.799 18.7909 180.929 18.5994C181.059 18.4079 181.187 18.2331 181.213 18.2105C181.24 18.1879 181.683 17.5805 182.197 16.8602C182.711 16.1404 183.327 15.2934 183.565 14.9782C183.976 14.4317 183.996 14.3846 183.975 13.9554L183.954 13.5052L175.405 13.4845L166.855 13.4634V14.5279ZM28.127 13.8258C27.4696 13.9755 26.9937 14.1405 26.4913 14.3929C26.265 14.5068 25.9884 14.6345 25.8762 14.6772C24.4079 15.236 22.2453 18.6107 22.4525 20.0199C22.4716 20.15 22.4564 20.2565 22.419 20.2565C22.3039 20.2565 22.421 21.9692 22.5902 22.7592C22.8579 24.0069 23.594 25.6292 24.2401 26.3942C24.3735 26.5518 24.5196 26.7251 24.5654 26.7796C24.6107 26.8336 24.6481 26.9146 24.6481 26.9593C24.6481 27.004 24.8882 27.2903 25.181 27.5962C25.4742 27.9021 25.7144 28.1755 25.7144 28.2045C25.7144 28.233 25.9446 28.4603 26.2266 28.7093C26.5086 28.9587 26.9426 29.3545 27.1906 29.5892C27.4386 29.8239 27.9734 30.2869 28.3794 30.6178C29.3335 31.3956 29.3276 31.3907 30.6759 32.4969C31.3072 33.0154 31.9055 33.502 32.0049 33.5786C32.1048 33.6557 32.3444 33.8595 32.5383 34.0318C34.7443 35.9959 35.8539 36.4947 37.3291 36.1859C38.3201 35.9787 38.4279 35.908 41.1957 33.6474C41.4088 33.4731 41.7311 33.2104 41.9112 33.0631C42.0918 32.9158 42.479 32.5995 42.7723 32.3599C43.0656 32.1208 43.4533 31.7859 43.6334 31.6156C43.814 31.4452 43.9862 31.3057 44.0162 31.3052C44.3444 31.2998 47.9813 27.8544 48.6254 26.9387C48.8119 26.6735 49.087 26.2861 49.2366 26.0775C50.5336 24.2705 51.2279 21.1467 50.7305 19.3565C50.6744 19.1542 50.6143 18.9151 50.5976 18.8248C50.5661 18.6539 50.4082 18.2449 50.1498 17.6645C49.894 17.0895 48.5905 15.4604 48.4773 15.5733C48.4517 15.5988 48.431 15.5743 48.431 15.5198C48.431 15.397 48.0177 15.0253 47.8775 15.0219C47.8214 15.0204 47.7751 14.9811 47.7751 14.9345C47.7751 14.8692 47.224 14.5692 46.9549 14.4882C46.9322 14.4813 46.6926 14.3747 46.4219 14.2505C45.0845 13.6387 42.8097 13.5327 41.4024 14.0173C39.9784 14.5073 39.3647 14.9345 38.3088 16.1704C37.145 17.5319 36.3444 17.635 35.3264 16.5543C35.103 16.3177 34.6537 15.8399 34.327 15.4933C33.0018 14.086 30.2428 13.3441 28.127 13.8258ZM81.9614 15.3882C82.9937 15.5861 84.8897 16.3334 85.3325 16.7173C85.4019 16.7777 85.6804 16.9874 85.951 17.1833C86.5071 17.5864 87.4489 18.5969 87.7166 19.0776C88.0443 19.6659 88.2382 19.9698 88.3253 20.0302C88.3725 20.0631 88.3858 20.0911 88.3548 20.0916C88.3233 20.0925 88.3917 20.3047 88.5073 20.5634C89.3576 22.4725 89.6342 25.1215 89.1824 27.03C88.9659 27.9448 88.7479 28.5983 88.4862 29.1153C88.3326 29.4188 88.2342 29.6682 88.2682 29.6687C88.3016 29.6697 88.2893 29.6972 88.2406 29.7301C88.1919 29.7635 87.9956 30.0546 87.8042 30.3777C87.3967 31.0661 86.4928 32.0177 85.8246 32.4611C85.1386 32.9162 84.8852 33.4244 84.8852 34.3436L84.8857 35.0507L84.3804 34.6495C83.5207 33.967 83.1039 33.8634 82.0145 34.0632C80.9517 34.2582 78.9475 34.2542 78.0372 34.0554C77.6538 33.9714 77.2425 33.8904 77.1234 33.8747C76.402 33.7804 75.0661 33.0994 74.0184 32.2917C73.6937 32.0413 72.7066 31.0897 72.7066 31.0268C72.7066 30.9954 72.5624 30.7754 72.3863 30.5378C70.3727 27.8176 70.1006 23.2959 71.7594 20.1205C72.3464 18.9966 72.5669 18.6942 73.4855 17.7544C74.0017 17.226 74.3171 16.9997 75.5768 16.2514C75.7796 16.1311 76.3518 15.8993 76.8478 15.7373C77.6337 15.48 78.045 15.3926 79.2265 15.2306C79.6959 15.1662 81.2804 15.2576 81.9614 15.3882ZM153.136 15.7996C153.552 15.9126 154.056 16.0751 154.257 16.1605C154.456 16.246 154.642 16.2946 154.669 16.2676C154.696 16.2411 154.717 16.2622 154.717 16.3147C154.717 16.3673 154.789 16.4105 154.877 16.4105C154.964 16.4105 155.059 16.4483 155.088 16.4949C155.117 16.5411 155.297 16.6525 155.488 16.7424C157.262 17.5742 159.1 20.1608 159.642 22.5888C159.692 22.8137 159.753 23.0715 159.776 23.1618C160.044 24.1871 159.825 26.5999 159.331 28.0719C159.21 28.4319 159.11 28.7525 159.108 28.7839C159.106 28.8153 159.059 28.887 159.003 28.9435C158.946 28.9995 158.9 29.0756 158.9 29.1124C158.9 29.1492 158.748 29.4276 158.562 29.7306C158.376 30.0335 158.145 30.4155 158.049 30.5795C157.211 32.0128 154.739 33.5811 152.837 33.885C152.405 33.9542 151.941 34.0303 151.806 34.0544C151.671 34.079 151.08 34.0922 150.494 34.0844C148.89 34.0628 148.82 34.0583 148.864 33.9881C148.886 33.9523 148.801 33.9204 148.674 33.9169C148.198 33.9037 147.399 33.6655 146.598 33.2978C141.616 31.0101 139.849 24.3457 142.936 19.4798C143.254 18.9784 143.271 18.9573 143.909 18.2635C146.061 15.9249 149.86 14.9104 153.136 15.7996ZM30.6744 15.8797C31.935 16.1458 32.8286 16.7763 33.7709 18.0632C35.5065 20.4348 37.6819 20.3366 39.7038 17.7961C43.166 13.4457 49.7547 16.6501 48.6407 22.1425C48.4064 23.2974 47.6895 24.7822 46.9982 25.5457C46.9519 25.5968 46.7866 25.7991 46.6306 25.996C46.1429 26.6117 44.0782 28.5733 43.2171 29.2391C42.7241 29.6206 41.7114 30.4607 41.1962 30.9154C40.9029 31.1741 40.6303 31.3863 40.59 31.3863C40.5501 31.3868 40.3326 31.5488 40.1073 31.7462C39.8814 31.944 39.6049 32.1827 39.4922 32.2765C39.3795 32.3702 39.1576 32.5583 39.0001 32.6943C37.1997 34.2464 36.343 34.3068 34.6788 33.0007C32.96 31.6519 32.063 30.9237 31.0449 30.0502C30.1198 29.2572 29.8177 29.0127 29.7591 29.0112C29.6381 29.0083 26.8584 26.3416 26.5341 25.9169C26.4215 25.7691 26.2276 25.5261 26.1036 25.3763C25.9796 25.2265 25.8782 25.0871 25.8782 25.0665C25.8782 25.0459 25.6932 24.7218 25.4668 24.3462C23.2624 20.6857 24.8759 16.6388 28.8714 15.8085C29.2449 15.7314 30.1385 15.7663 30.6744 15.8797ZM130.514 33.0876C128.404 34.188 130.204 37.3422 132.351 36.3052C133.089 35.9482 133.751 34.5616 133.311 34.2906C133.265 34.2621 133.248 34.2056 133.273 34.1654C133.345 34.05 133.073 33.5801 132.775 33.3037C132.232 32.7999 131.247 32.7056 130.514 33.0876Z" fill="#4464B4"/>
</g>
<defs>
<filter id="filter0_d" x="0" y="0" width="192" height="51" filterUnits="userSpaceOnUse" color-interpolation-filters="sRGB">
<feFlood flood-opacity="0" result="BackgroundImageFix"/>
<feColorMatrix in="SourceAlpha" type="matrix" values="0 0 0 0 0 0 0 0 0 0 0 0 0 0 0 0 0 0 127 0"/>
<feOffset dy="4"/>
<feGaussianBlur stdDeviation="4"/>
<feColorMatrix type="matrix" values="0 0 0 0 0 0 0 0 0 0 0 0 0 0 0 0 0 0 0.3 0"/>
<feBlend mode="normal" in2="BackgroundImageFix" result="effect1_dropShadow"/>
<feBlend mode="normal" in="SourceGraphic" in2="effect1_dropShadow" result="shape"/>
</filter>
</defs>
</svg>
