<svg width="624" height="75" viewBox="0 0 624 75" fill="none" xmlns="http://www.w3.org/2000/svg">
<path fill-rule="evenodd" clip-rule="evenodd" d="M523 1.422C515.464 4.93572 517.846 15.898 526.137 15.8543C529.137 15.8371 532.765 13.8222 532.765 12.1721C532.765 11.9148 532.899 11.5702 533.063 11.4064C533.607 10.8621 533.658 7.38893 533.145 5.75917C531.944 1.94133 526.698 -0.302895 523 1.422ZM237.313 3.53366C230.661 4.55674 227.788 8.59916 227.186 17.7741L227.012 20.4379H224.71H222.409V26.1569V31.8743H224.749H227.088V45.2617V58.6475H233.456H239.825V45.2617V31.8743H244.114H248.403V26.1569V20.4379H244.08H239.758L239.93 19.0733C240.479 14.6955 241.765 13.9906 247.752 14.7813C248.255 14.8468 248.275 14.6784 248.342 9.72673L248.414 4.60509L247.433 4.34464C244.356 3.52898 239.741 3.15936 237.313 3.53366ZM419.176 13.8175V23.0533L417.991 22.392C417.341 22.0287 416.489 21.4968 416.101 21.2083C414.833 20.271 411.664 19.3384 409.275 19.2012C396.569 18.4635 387.303 30.9681 390.318 44.7844C393.25 58.2139 408.955 64.5676 418.649 56.2457C419.169 55.7997 419.176 55.8122 419.176 57.2205V58.6475H425.415H431.653V31.6154V4.58169H425.415H419.176V13.8175ZM491.697 13.8097V20.4379H489.226H486.757V26.1569V31.8743H489.226H491.697V40.7935C491.697 54.1169 492.81 57.1908 498.378 59.2308C501.218 60.271 508.434 60.0573 511.071 58.8549L511.711 58.5633V53.5446V48.5243L509.306 48.6662C504.671 48.9407 504.391 48.3995 504.228 38.8284L504.108 31.8743H507.91H511.711V26.1569V20.4379H507.941H504.173V13.8097V7.18151H497.935H491.697V13.8097ZM270.642 17.5917C262.118 18.6007 254.97 24.3758 252.484 32.2642C251.773 34.524 251.642 42.2298 252.278 44.4819C252.685 45.926 254.739 50.1993 255.146 50.4504C255.29 50.5393 255.596 51.0087 255.825 51.4953C256.056 51.9803 257.573 53.5804 259.198 55.0495C262.096 57.6712 262.531 58.2654 263.222 60.5315L263.518 61.5062H272.929H282.338L283.097 59.7517C283.744 58.2592 284.326 57.5324 287.005 54.878C289.863 52.0489 292.071 49.2776 292.071 48.5212C292.071 48.3605 292.32 47.7398 292.625 47.1425C295.555 41.4001 294.424 30.4457 290.458 26.1288C290.129 25.7716 289.236 24.7548 288.471 23.869C287.706 22.9816 286.982 22.2579 286.862 22.2579C286.742 22.2579 285.78 21.6388 284.725 20.8808C281.174 18.3325 275.524 17.0131 270.642 17.5917ZM366.28 19.315C364.339 19.7501 362.253 20.664 360.447 21.8727L358.353 23.2748V21.8571V20.4379H351.984H345.616V39.5427V58.6475H351.974H358.331L358.407 47.5355C358.482 36.489 358.485 36.4157 359.097 35.0652C361.43 29.9045 368.216 29.1778 370.569 33.8378L371.219 35.1244L371.296 46.8852L371.374 58.6475H377.751H384.128L384.014 46.1054C383.867 29.903 383.655 28.6459 380.376 24.4569C377.285 20.5081 371.073 18.242 366.28 19.315ZM452.219 19.669C448.587 20.6204 441.53 25.5627 441.53 27.1565C441.53 27.2891 441.059 28.2015 440.483 29.1824C438.529 32.5152 438.056 34.4897 438.038 39.4132C438.016 45.0199 438.269 45.9167 441.547 51.8477C446.071 60.0308 459.572 62.4373 466.807 56.3502C467.232 55.9931 467.263 56.0586 467.263 57.3078V58.6475H473.63H480V39.5427V20.4379H473.63H467.263V21.7698C467.263 22.9285 467.211 23.058 466.87 22.7741C463.144 19.6815 457.079 18.3964 452.219 19.669ZM555.508 19.2869C555.223 19.3556 554.17 19.5942 553.169 19.8187C534.597 23.9859 532.525 51.1069 550.232 58.2482C564.799 64.1216 580.05 54.7189 580.146 39.8031C580.173 35.7295 579.047 31.4282 577.364 29.1824C577.029 28.7333 576.679 28.1313 576.59 27.8459C575.854 25.4925 569.954 21.4095 565.126 19.9108C563.356 19.3602 556.949 18.9454 555.508 19.2869ZM605.935 19.4086C603.568 19.9763 599.521 22.0926 598.864 23.1063C598.741 23.2966 598.604 22.8443 598.527 21.9975L598.396 20.5673L592.094 20.4987L585.79 20.4285V39.5427V58.6568L592.094 58.5867L598.396 58.518L598.527 47.2111L598.657 35.9042L599.437 34.4803C601.459 30.7888 606.734 29.4959 609.301 32.0614C611.305 34.0655 611.512 35.597 611.519 48.4447L611.523 58.6475H617.762H624V45.6921C624 30.0792 623.92 29.5583 620.832 24.9747C617.913 20.6438 611.218 18.1422 605.935 19.4086ZM298.833 33.1094C298.839 46.5608 298.952 48.1547 300.115 51.1225C300.954 53.2638 303.732 56.6606 305.363 57.5402C306.096 57.9348 307.062 58.4557 307.506 58.6958C311.854 61.0523 319.814 59.8452 323.716 56.2379L324.301 55.6983V57.1721V58.6475H330.67H337.038V39.5427V20.4379H330.68H324.323L324.246 31.6793L324.172 42.9223L323.464 44.2214C320.429 49.7953 313.577 49.8063 311.729 44.2401C311.363 43.1344 311.305 41.4251 311.305 31.698V20.4379H305.067H298.829L298.833 33.1094ZM519.769 39.5427V58.6475H526.137H532.504V39.5427V20.4379H526.137H519.769V39.5427ZM278.925 26.6575C283.1 28.6881 285.739 32.3421 286.272 36.8321C286.75 40.8512 282.757 41.0555 282.188 37.0411C281.58 32.7398 278.668 29.8281 274.526 29.3774C272.09 29.1123 271.168 27.8755 272.216 26.2769C272.955 25.1494 276.202 25.3334 278.925 26.6575ZM413.846 31.4953C419.189 34.0234 420.522 40.4114 416.74 45.3693C412.684 50.6905 404.398 48.5009 402.618 41.6403C400.856 34.8453 407.754 28.6132 413.846 31.4953ZM460.758 30.9869C468.677 33.3387 469.498 44.1996 462.012 47.6151C456.561 50.1026 450.758 45.9307 450.758 39.524C450.758 33.8502 455.828 29.5224 460.758 30.9869ZM560.577 30.8574C564.614 31.7854 567.202 35.1774 567.202 39.5427C567.202 48.9797 555.744 51.6996 551.545 43.2607C548.598 37.3359 554.357 29.4273 560.577 30.8574ZM206.553 46.7776C204.014 47.8116 202.308 51.1163 202.796 54.0561C204.209 62.5355 216.533 61.5249 216.533 52.9285C216.531 47.6915 211.67 44.694 206.553 46.7776ZM263.738 68.2139C263.738 71.2114 264.39 72.9067 266.024 74.1575L266.987 74.8936L272.788 74.9716C281.031 75.0838 282.193 74.2729 282.193 68.3995V65.6656H272.966H263.738V68.2139Z" fill="#F4C454"/>
<path fill-rule="evenodd" clip-rule="evenodd" d="M4.45879 1.42821C-1.27889 4.04362 -1.54402 12.7991 4.04082 15.2024C9.72392 17.6478 14.8518 14.3961 14.8502 8.35116C14.8487 2.78348 9.4198 -0.833176 4.45879 1.42821ZM49.2966 13.6802C49.2966 18.6833 49.228 22.7772 49.1453 22.7772C49.0626 22.7772 48.3905 22.378 47.6512 21.8898C38.0006 15.5143 25.4413 20.4675 21.349 32.2641C16.2024 47.1004 27.6076 62.3 41.9057 59.6628C43.654 59.3399 47.2832 57.6961 48.4903 56.6793L49.2966 56.0024V57.3249V58.6475H55.7953H62.2925V31.6153V4.58167H55.7953H49.2966V13.6802ZM83.2704 19.538C76.2928 20.926 71.2445 25.1197 69.1812 31.2426C66.3412 39.669 67.7916 48.4011 72.9288 53.805C74.3028 55.2491 77.0586 57.3483 77.5826 57.3483C77.7152 57.3483 78.509 57.6509 79.3465 58.0205C85.2978 60.6531 94.7785 60.5657 101.672 57.8162C105.53 56.2769 105.292 56.8009 103.857 53.0112C103.272 51.4656 102.671 49.7314 102.522 49.1606C102.023 47.2501 101.591 46.3003 101.24 46.3424C101.05 46.3658 99.4369 46.751 97.6574 47.2002C89.1016 49.3618 83.9862 48.3402 81.7607 44.0264L81.257 43.0517H94.295H107.333L107.188 38.8284C107.093 36.0601 106.892 34.067 106.605 33.0439C106.363 32.1862 106.054 31.0165 105.919 30.4457C104.078 22.6618 93.406 17.523 83.2704 19.538ZM126.51 19.5427C111.457 22.8069 106.547 44.4319 118.395 55.2913C124.443 60.8355 133.844 61.4219 140.207 56.6543L141.051 56.0211V57.3343V58.6475H147.289H153.528V39.5427V20.4379H147.289H141.051V21.7697C141.051 22.9285 141.001 23.058 140.658 22.7741C137.132 19.8484 131.274 18.5102 126.51 19.5427ZM173.802 19.5162C165.279 21.0945 161.168 25.3006 161.213 32.3951C161.26 39.7392 166.123 43.4977 177.701 45.1337C183.443 45.9447 184.863 46.4906 184.242 47.6509C183.152 49.6893 176.36 49.5224 169.123 47.2797C166.608 46.4999 164.61 45.6094 164.317 45.1353C163.584 43.9485 161.786 48.0205 160.118 54.644C159.58 56.7807 170 59.8203 177.832 59.8125C183.949 59.8062 186.092 59.3555 191.218 56.9974C198.813 53.5024 199.042 39.1715 191.547 36.4017C190.865 36.1506 190.192 35.8605 190.048 35.7576C189.905 35.6546 188.835 35.271 187.67 34.9045C185.628 34.2635 184.267 33.9968 178.091 33.0236C175.073 32.5495 174.063 32.1253 174.063 31.3315C174.063 29.145 181.803 29.2479 187.838 31.514C191.481 32.8817 191.151 33.047 192.314 29.276C193.695 24.8047 194.167 22.4762 193.749 22.2064C190.265 19.9606 179.35 18.4884 173.802 19.5162ZM1.21019 39.5427V58.6475H7.57794H13.9457V39.5427V20.4379H7.57794H1.21019V39.5427ZM89.0969 29.5661C90.708 29.9123 92.6341 31.5467 93.4731 33.2825C94.3465 35.0854 94.6646 34.9934 87.5062 34.9934C83.9316 34.9934 81.0074 34.931 81.0074 34.8561C81.0074 31.9163 85.7111 28.8409 89.0969 29.5661ZM44.2124 31.4687C50.9154 34.7657 51.0152 44.29 44.3792 47.523C36.5938 51.3159 29.348 41.2925 34.6646 34.0842C36.9588 30.9744 40.97 29.8749 44.2124 31.4687ZM136.467 31.8274C143.677 35.6952 141.72 47.0099 133.607 48.3667C127.79 49.3384 122.523 41.7931 125.131 36.2223C127.506 31.1444 131.97 29.4132 136.467 31.8274Z" fill="#04549C"/>
</svg>
