<svg width="19" height="16" viewBox="0 0 19 16" fill="none" xmlns="http://www.w3.org/2000/svg">
<path d="M4.61665 0.211851C7.86609 -0.0706168 11.1339 -0.070617 14.3833 0.21185L15.9489 0.34794C16.9911 0.438536 17.8837 1.06017 18.3462 1.94936C18.4053 2.06311 18.361 2.20084 18.252 2.26833L11.7565 6.28931C10.3634 7.1517 8.60687 7.16979 7.19632 6.33628L0.657487 2.47243C0.551844 2.41 0.503353 2.2815 0.550963 2.16841C0.974068 1.16333 1.9253 0.445804 3.05111 0.34794L4.61665 0.211851Z" fill="white"/>
<path d="M0.545642 4.21245C0.383967 4.11692 0.177675 4.21973 0.15883 4.40657C-0.104198 7.01433 -0.0405382 9.64678 0.34981 12.2426C0.555594 13.6111 1.67246 14.6602 3.05111 14.78L4.61665 14.9161C7.86609 15.1986 11.1339 15.1986 14.3834 14.9161L15.9489 14.78C17.3275 14.6602 18.4444 13.6111 18.6502 12.2426C19.0519 9.57114 19.1076 6.86088 18.8173 4.17866C18.797 3.99049 18.5872 3.88958 18.4263 3.9892L12.575 7.61142C10.6902 8.77817 8.31367 8.80266 6.40528 7.67497L0.545642 4.21245Z" fill="white"/>
</svg>
