<svg width="23" height="18" viewBox="0 0 23 18" fill="none" xmlns="http://www.w3.org/2000/svg">
<path d="M7.96148 9.81737L4.86529 9.81737C4.49667 9.81737 4.1833 9.93665 3.92526 10.1753C3.66736 10.4139 3.53825 10.7037 3.53825 11.0447L3.53825 11.4536C3.53825 12.357 3.88386 13.1282 4.57505 13.7674C5.26619 14.4064 6.1002 14.7261 7.07693 14.7261L7.96148 14.7261C8.20102 14.7261 8.40828 14.8071 8.58344 14.9689C8.7585 15.1309 8.84603 15.3225 8.84603 15.5441L8.84603 17.1805C8.84603 17.4021 8.75845 17.5939 8.58344 17.7559C8.40833 17.9176 8.20107 17.9987 7.96148 17.9987L7.07693 17.9987C6.1185 17.9987 5.20413 17.826 4.33323 17.481C3.46243 17.1358 2.70923 16.6692 2.07332 16.0811C1.43747 15.4932 0.933059 14.7966 0.559845 13.9911C0.186631 13.1858 -4.94711e-07 12.3399 -5.72195e-07 11.4536L-1.35893e-06 2.45438C-1.41857e-06 1.77225 0.257893 1.19305 0.773925 0.71562C1.29 0.238462 1.91676 -9.74423e-05 2.65389 -9.75068e-05L7.96182 -9.79708e-05C8.6989 -9.80353e-05 9.32546 0.238462 9.84159 0.715619C10.3575 1.19305 10.6156 1.77225 10.6156 2.45438L10.6156 7.36294C10.6156 8.04494 10.3575 8.62414 9.84125 9.10161C9.32536 9.57873 8.69856 9.81737 7.96148 9.81737Z" fill="white"/>
<path d="M22.2267 9.10287C21.7109 9.57998 21.0843 9.81863 20.347 9.81863L17.2508 9.81863C16.8824 9.81863 16.5687 9.9379 16.3111 10.1766C16.053 10.4152 15.9241 10.7049 15.9241 11.0459L15.9241 11.4548C15.9241 12.3582 16.2697 13.1294 16.9606 13.7687C17.6515 14.4077 18.4855 14.7273 19.4627 14.7273L20.347 14.7273C20.5866 14.7273 20.794 14.8083 20.969 14.9702C21.1439 15.1321 21.2318 15.3238 21.2318 15.5454L21.2318 17.1818C21.2318 17.4033 21.144 17.5952 20.969 17.7571C20.7941 17.9189 20.5867 18 20.347 18L19.4627 18C18.5037 18 17.5895 17.8273 16.7184 17.4823C15.8477 17.1371 15.0948 16.6704 14.4589 16.0823C13.823 15.4945 13.3183 14.7978 12.9452 13.9924C12.5721 13.187 12.3853 12.3412 12.3853 11.4549L12.3853 2.45564C12.3853 1.7735 12.6434 1.1943 13.1593 0.716875C13.6752 0.239715 14.3018 0.00115569 15.039 0.00115562L20.3467 0.00115516C21.084 0.00115509 21.7105 0.239715 22.2264 0.716874C22.7427 1.1943 23.0003 1.7735 23.0003 2.45564L23.0003 7.36419C23.0003 8.04624 22.7427 8.62539 22.2267 9.10287Z" fill="white"/>
</svg>
