<svg width="403" height="836" viewBox="0 0 403 836" fill="none" xmlns="http://www.w3.org/2000/svg">
<path d="M0.72699 89.8674C0.72699 74.2402 0.727184 62.5348 1.48628 53.2439C2.24513 43.956 3.76116 37.1032 6.78067 31.177C12.1056 20.7262 20.6025 12.2294 31.0533 6.90442C36.9794 3.88491 43.8323 2.36888 53.1202 1.61002C62.411 0.850933 74.1165 0.850739 89.7437 0.850739H313.256C328.883 0.850739 340.588 0.850933 349.879 1.61002C359.167 2.36888 366.02 3.88491 371.946 6.90442C382.397 12.2294 390.894 20.7262 396.219 31.177C399.238 37.1032 400.754 43.956 401.513 53.2439C402.272 62.5348 402.272 74.2402 402.272 89.8675V745.909C402.272 761.536 402.272 773.242 401.513 782.533C400.754 791.82 399.238 798.673 396.219 804.599C390.894 815.05 382.397 823.547 371.946 828.872C366.02 831.892 359.167 833.408 349.879 834.166C340.588 834.926 328.883 834.926 313.256 834.926H89.7437C74.1165 834.926 62.411 834.926 53.1202 834.166C43.8323 833.408 36.9794 831.892 31.0533 828.872C20.6025 823.547 12.1056 815.05 6.78067 804.599C3.76116 798.673 2.24513 791.82 1.48628 782.533C0.727184 773.242 0.72699 761.536 0.72699 745.909V89.8674Z" fill="black" stroke="url(#paint0_linear)" stroke-width="0.5"/>
<defs>
<linearGradient id="paint0_linear" x1="26.1741" y1="11.2673" x2="371.173" y2="814.14" gradientUnits="userSpaceOnUse">
<stop stop-color="white" stop-opacity="0.16"/>
<stop offset="1" stop-color="white" stop-opacity="0.05"/>
</linearGradient>
</defs>
</svg>
