<svg width="15" height="15" viewBox="0 0 15 15" fill="none" xmlns="http://www.w3.org/2000/svg">
<path d="M14.9232 14.0996C13.857 12.1716 12.1497 10.7255 10.1294 10.0394C11.0972 9.43477 11.8493 8.51322 12.27 7.41631C12.6907 6.31941 12.7568 5.10783 12.4582 3.96765C12.1595 2.82747 11.5127 1.82176 10.617 1.10498C9.72122 0.388202 8.62615 0 7.49994 0C6.37373 0 5.27866 0.388202 4.38293 1.10498C3.4872 1.82176 2.84035 2.82747 2.54172 3.96765C2.24309 5.10783 2.30921 6.31941 2.72991 7.41631C3.15062 8.51322 3.90264 9.43477 4.87048 10.0394C2.85028 10.7255 1.14296 12.1715 0.0768205 14.0995C0.0265671 14.1907 7.18736e-05 14.2942 1.46022e-07 14.3995C-7.15815e-05 14.5049 0.0262828 14.6084 0.076412 14.6996C0.126541 14.7909 0.198677 14.8667 0.285563 14.9194C0.372449 14.9721 0.47102 14.9999 0.571361 14.9998L14.4286 15C14.529 15 14.6275 14.9723 14.7144 14.9196C14.8013 14.8669 14.8735 14.7911 14.9236 14.6998C14.9737 14.6085 15.0001 14.505 15 14.3997C14.9999 14.2943 14.9734 14.1908 14.9232 14.0996L14.9232 14.0996Z" fill="white"/>
</svg>
