<svg width="9" height="15" viewBox="0 0 9 15" fill="none" xmlns="http://www.w3.org/2000/svg">
<path d="M6.02055 0C5.01236 0 4.04547 0.4005 3.33257 1.1134C2.61968 1.82629 2.21918 2.79318 2.21918 3.80137V5.91781H0.184931C0.0827965 5.91781 0 6.00061 0 6.10274V8.89726C0 8.9994 0.0827966 9.08219 0.184931 9.08219H2.21918V14.8151C2.21918 14.9172 2.30197 15 2.40411 15H5.19863C5.30076 15 5.38356 14.9172 5.38356 14.8151V9.08219H7.43583C7.52068 9.08219 7.59465 9.02444 7.61524 8.94211L8.31387 6.14759C8.34305 6.03087 8.25477 5.91781 8.13446 5.91781H5.38356V3.80137C5.38356 3.63243 5.45067 3.47041 5.57013 3.35095C5.68959 3.23149 5.85161 3.16438 6.02055 3.16438H8.15753C8.25967 3.16438 8.34246 3.08159 8.34246 2.97945V0.184932C8.34246 0.0827968 8.25967 0 8.15753 0H6.02055Z" fill="white"/>
</svg>
