<svg width="740" height="180" viewBox="0 0 740 180" fill="none" xmlns="http://www.w3.org/2000/svg">
<g filter="url(#filter0_d)">
<path fill-rule="evenodd" clip-rule="evenodd" d="M60.2825 0.190422C55.9006 0.896303 50.1625 3.15278 48.0899 4.98885C46.2444 6.62157 44.4537 8.54954 44.2776 9.09313C44.1758 9.40598 43.9683 9.66213 43.8157 9.66213C42.4496 9.66213 38.8662 20.395 38.7958 24.6968C38.7723 26.0695 38.6568 27.1332 38.5374 27.0608C38.4181 26.9904 38.3222 27.5555 38.3241 28.3181C38.3261 29.0807 38.3124 31.7224 38.2967 34.1861L38.2654 38.6678H29.1317H20V42.7408V46.8137H29.1317H38.2635L38.3457 87.1428L38.4279 127.472L43.0759 127.564L47.724 127.654V87.2347V46.8137H62.4021H77.0802V42.7408V38.6678H62.3668H47.6535L47.8101 31.4154C47.9862 23.2518 48.2759 21.6426 50.3543 17.2841C54.2763 9.05403 64.8973 6.1953 74.3246 10.8295C75.7513 11.5314 77.0997 12.0848 77.3228 12.0613C77.544 12.0379 77.6594 12.1259 77.5773 12.2569C77.3404 12.6401 79.0451 13.432 79.3034 13.0586C81.7478 9.5409 83.6011 6.62353 83.5914 6.31263C83.5581 5.38579 76.3717 1.79185 72.3225 0.677305C70.1306 0.0750579 62.8326 -0.220201 60.2825 0.190422ZM197.44 63.923V127.636H202.171H206.901V63.923V0.211934H202.171H197.44V63.923ZM231.2 63.923V127.636H235.848H240.496V63.923V0.211934H235.848H231.2V63.923ZM301.346 36.3976C295.596 37.0526 290.498 38.5211 285.599 40.934C283.763 41.8374 282.184 42.5785 282.088 42.5785C281.928 42.5785 280.432 43.5952 278.17 45.2475C276.51 46.4598 269.201 53.9606 269.201 54.4533C269.201 54.5472 268.666 55.4583 268.011 56.481C264.727 61.6118 261.791 69.5564 261.167 75.004C260.572 80.1857 260.758 91.6792 261.427 91.2647C261.594 91.161 261.639 91.427 261.527 91.8669C260.932 94.2329 264.987 105.069 268.069 109.358C268.692 110.222 269.201 111.039 269.201 111.172C269.201 111.413 271.078 113.757 272.952 115.857C273.491 116.461 274.518 117.361 275.236 117.855C275.953 118.35 277.127 119.285 277.845 119.93C278.561 120.575 279.332 121.105 279.558 121.109C279.781 121.115 279.965 121.238 279.965 121.385C279.965 122.001 288.746 126.412 290.695 126.774C290.983 126.827 291.805 127.034 292.523 127.235C299.256 129.109 312.605 129.5 316.713 127.941C317.198 127.757 317.472 127.806 317.584 128.1C317.738 128.502 327.721 136.76 328.052 136.76C328.136 136.76 328.586 137.114 329.054 137.546C331.224 139.556 334.223 139.99 335.424 138.471C336.254 137.423 336.193 133.526 335.26 128.01C334.99 126.416 334.886 125.591 334.591 122.748L334.371 120.628L336.53 118.88C338.767 117.069 343.57 112.101 343.57 111.598C343.57 111.442 343.857 111.004 344.21 110.627C350.228 104.174 353.964 84.7221 351.447 72.9587C350.21 67.1846 346.331 57.181 345.12 56.6452C344.985 56.5866 344.875 56.3285 344.875 56.0743C344.875 55.822 344.728 55.6128 344.548 55.6128C344.368 55.6128 344.221 55.4505 344.221 55.253C344.221 54.4044 339.628 49.4398 335.252 45.5604C328.207 39.313 312.656 35.111 301.346 36.3976ZM581.028 37.0624C575.752 37.7312 570.503 39.3326 565.698 41.7377C564.532 42.3223 563.027 43.0419 562.355 43.3352C561.682 43.6304 561.132 44.0196 561.132 44.2014C561.132 44.3833 561.009 44.4967 560.86 44.4517C560.259 44.2718 552.664 51.0725 551.014 53.2703C550.57 53.8628 550.057 54.5296 549.879 54.7486C549.699 54.9676 549.331 55.5346 549.063 56.0078C548.793 56.481 547.826 58.1626 546.91 59.7445C544.55 63.8253 542.685 68.9151 542.027 73.0585C541.914 73.7702 541.771 74.435 541.71 74.5367C541.648 74.6384 541.442 76.5448 541.252 78.7739C540.931 82.5653 541.015 84.7377 541.724 90.9675C542.282 95.8754 545.427 104.268 548.239 108.352C548.871 109.27 549.39 110.097 549.39 110.189C549.39 111.041 555.32 117.349 557.647 118.97C558.138 119.312 558.934 119.957 559.414 120.403C568.004 128.356 590.312 131.748 601.982 126.877C602.567 126.633 603.157 126.412 603.292 126.385C607.368 125.595 617.197 117.94 621.35 112.32L623.269 109.725L623.356 118.681L623.442 127.636H628.166H632.89V82.6631V37.6901H628.166H623.442L623.356 47.0582L623.269 56.4282L622.528 55.0438C622.121 54.2812 621.643 53.6575 621.469 53.6575C621.293 53.6575 621.148 53.4698 621.148 53.239C621.148 52.6681 614.167 45.5975 612.341 44.3207C604.333 38.7167 591.485 35.7387 581.028 37.0624ZM358.248 38.0831C358.248 38.3002 358.821 40.0228 359.524 41.9117C362.25 49.2599 364.414 55.2218 365.146 57.4059C365.569 58.6612 366.023 59.7367 366.16 59.7973C366.295 59.8559 366.332 60.0241 366.242 60.1707C366.086 60.423 367.428 64.3552 370.305 72.071C373.196 79.8239 375.554 86.4193 375.676 87.0881C375.746 87.4752 375.95 88.0677 376.13 88.404C376.31 88.7423 376.754 89.984 377.118 91.163C377.482 92.3441 378.746 95.936 379.928 99.1467C383.197 108.02 384.829 112.56 385.715 115.251C386.16 116.596 387.316 119.932 388.287 122.666L390.05 127.634H395.313L400.575 127.636L401.29 125.878C401.681 124.91 402.033 123.921 402.071 123.679C402.108 123.434 402.253 123.051 402.394 122.826C402.534 122.599 403.208 120.767 403.889 118.751C404.57 116.737 405.574 113.915 406.12 112.482C406.666 111.047 408.175 107.087 409.472 103.683C410.77 100.277 411.835 97.3067 411.84 97.0838C411.846 96.859 411.942 96.6751 412.054 96.6751C412.167 96.6751 412.527 95.8324 412.854 94.8019C413.864 91.6245 414.283 90.4024 415.14 88.1264C415.594 86.9199 416.03 85.6 416.107 85.1933C416.183 84.7866 416.825 82.8411 417.534 80.8701C418.24 78.8991 418.831 77.1725 418.845 77.0337C418.858 76.8948 419.26 75.6063 419.739 74.171C420.217 72.7339 420.645 71.3807 420.692 71.1637C420.737 70.9467 420.929 70.3913 421.119 69.9338C421.309 69.4743 421.643 68.4477 421.863 67.6519C422.082 66.8561 422.463 65.7435 422.71 65.1784C422.957 64.6133 423.158 63.8859 423.158 63.5613C423.158 63.2367 423.773 61.1113 424.524 58.8372L425.89 54.6997L428.611 63.0607C431.893 73.1445 432.865 76.318 433.495 78.9969C433.76 80.1173 434.11 81.0323 434.274 81.0323C434.439 81.0323 434.574 81.3276 434.574 81.6894C434.574 82.7453 435.633 86.2473 435.952 86.2473C436.112 86.2473 436.153 86.392 436.044 86.5679C435.936 86.7459 436.353 88.1752 436.971 89.7454C438.584 93.8321 440.615 99.2132 442.101 103.325C442.805 105.279 443.567 107.103 443.79 107.379C444.03 107.676 444.046 107.791 443.831 107.662C443.488 107.457 444.15 109.315 449.115 122.497L451.047 127.624L456.264 127.622L461.484 127.62L463.02 123.147C465.151 116.938 470.091 103.253 470.666 101.968C470.927 101.384 471.05 100.76 470.94 100.582C470.831 100.406 470.897 100.261 471.087 100.261C471.277 100.261 471.431 100.029 471.431 99.745C471.431 99.2464 474.715 89.6926 475.342 88.3649C476.035 86.9023 479.87 76.0189 479.937 75.3306C479.955 75.1507 480.076 74.8573 480.207 74.6775C480.34 74.4995 480.643 73.692 480.882 72.8864C481.401 71.1422 483.575 64.9829 485.828 58.8724C486.72 56.4517 488.035 52.891 488.748 50.9552C489.462 49.0214 489.969 47.3143 489.875 47.1637C489.781 47.0112 489.924 46.7062 490.192 46.4852C490.458 46.2643 490.677 45.7911 490.677 45.4352C490.677 45.0774 491.19 43.4154 491.818 41.7416C493.464 37.3479 493.779 37.6901 488.09 37.6901C482.587 37.6901 482.407 37.7585 482.023 40.0326C481.894 40.7893 481.456 42.2949 481.049 43.3782C480.64 44.4615 480.287 45.4567 480.264 45.5897C480.24 45.7207 480.152 46.014 480.068 46.2408C479.984 46.4657 479.489 47.897 478.968 49.4222C478.448 50.9454 477.502 53.6223 476.868 55.3684C476.234 57.1165 475.798 58.5458 475.898 58.5458C475.997 58.5458 475.933 58.7297 475.755 58.9545C475.463 59.3241 474.25 62.6423 474.218 63.1624C474.211 63.2837 474.105 63.4812 473.982 63.6024C473.86 63.7256 473.839 64.0306 473.937 64.2809C474.032 64.5331 473.982 64.7384 473.821 64.7384C473.492 64.7384 472.553 67.6226 472.682 68.2424C472.727 68.4653 472.612 68.6491 472.426 68.6491C472.238 68.6491 472.085 68.9796 472.085 69.3824C472.085 69.7852 471.774 70.9213 471.392 71.9087C471.013 72.8942 469.386 77.5127 467.78 82.1743C466.173 86.8339 464.349 92.1133 463.726 93.9064C463.102 95.6975 462.529 97.6411 462.448 98.2257C462.368 98.8084 462.155 99.5417 461.973 99.8545C461.793 100.167 460.56 103.576 459.237 107.43C455.961 116.966 456.139 116.61 455.628 114.6C455.464 113.96 454.346 110.789 454.192 110.527C454.086 110.347 453.97 110.054 453.933 109.874C453.898 109.696 453.426 108.264 452.884 106.696C452.344 105.128 451.96 103.845 452.031 103.845C452.101 103.845 451.931 103.222 451.651 102.461C451.371 101.698 450.291 98.6559 449.248 95.6975C448.207 92.741 446.516 87.9739 445.492 85.1073C444.469 82.2388 443.007 77.9116 442.244 75.4929C441.48 73.0721 440.68 70.6534 440.465 70.1156C440.249 69.5779 440.087 69.138 440.103 69.138C440.157 69.138 437.885 62.6032 436.873 59.8501C435.832 57.0148 435.709 56.6687 435.537 56.1016C435.482 55.9237 434.934 54.3829 434.319 52.6798C433.705 50.9767 433.081 48.9979 432.934 48.2803C432.785 47.5646 432.484 46.5381 432.261 46.0003C432.037 45.4626 431.832 44.9483 431.801 44.8584C431.769 44.7684 431.648 44.44 431.529 44.1252C430.979 42.6801 430.881 42.3751 430.769 41.8042C430.705 41.4678 430.444 40.7346 430.192 40.1734C429.939 39.6142 429.638 38.8262 429.523 38.4234C429.272 37.5552 423.227 37.2697 422.606 38.0968C422.295 38.5113 420.608 43.0869 418.07 50.3999C417.293 52.6407 416.361 55.2648 416.003 56.2327C415.645 57.1986 415.42 58.1039 415.504 58.2408C415.59 58.3777 415.541 58.54 415.398 58.6006C415.254 58.6612 414.242 61.4222 413.15 64.7384C411.144 70.8352 407.703 80.6491 407.153 81.8477C406.505 83.2575 405.883 85.3517 406.038 85.602C406.128 85.7467 406.089 85.9148 405.954 85.9755C405.818 86.0361 404.585 89.3837 403.216 93.4175C401.846 97.4495 400.047 102.657 399.219 104.985C398.389 107.316 397.156 110.803 396.477 112.734L395.24 116.246L394.683 114.69C394.375 113.833 394.125 112.836 394.127 112.472C394.127 112.109 393.9 111.485 393.62 111.088C393.34 110.689 393.187 110.363 393.281 110.363C393.373 110.363 392.563 107.834 391.477 104.741C390.393 101.65 388.952 97.5062 388.275 95.5352C387.6 93.5642 386.451 90.2636 385.723 88.2026C384.995 86.1417 384.146 83.5743 383.837 82.4989C383.527 81.4234 383.13 80.3617 382.952 80.1368C382.776 79.9119 382.713 79.7301 382.815 79.7301C382.915 79.7301 382.482 78.2988 381.856 76.5527C381.228 74.8046 380.519 72.7886 380.284 72.071C380.05 71.3534 379.668 70.3268 379.439 69.7891C379.21 69.2514 378.989 68.6491 378.946 68.4516C378.823 67.8729 377.165 63.0099 376.848 62.2942C376.407 61.299 374.908 56.5455 374.713 55.519C374.617 55.0184 374.433 54.6743 374.302 54.7525C374.173 54.8326 374.051 54.4416 374.03 53.8843C374.008 53.329 373.824 52.8167 373.619 52.7482C373.415 52.6798 373.327 52.4979 373.421 52.3435C373.517 52.189 372.574 49.2325 371.327 45.7735C370.078 42.3125 368.959 39.0784 368.836 38.5856L368.614 37.6901H363.432C359.598 37.6901 358.248 37.7918 358.248 38.0831ZM651.81 41.9254V46.1626H678.729H705.649L705.044 47.0582C704.711 47.5509 703.944 48.6889 703.337 49.5845C702.733 50.48 701.68 51.884 700.997 52.7013C700.316 53.5186 699.758 54.3497 699.758 54.5491C699.758 54.7466 699.625 54.9558 699.46 55.0164C699.073 55.1572 696.171 59.111 696.171 59.4981C696.171 59.6624 696.049 59.8442 695.901 59.9048C695.668 59.9987 694.717 61.2736 690.599 67.0203C690.164 67.6265 688.745 69.4958 687.444 71.1755C686.145 72.8551 685.08 74.3431 685.08 74.4819C685.08 74.744 679.989 81.7695 679.113 82.7159C678.837 83.0151 678.696 83.3455 678.802 83.4492C678.905 83.5548 678.845 83.6408 678.666 83.6408C678.322 83.6408 676.77 85.645 675.132 88.2046C674.594 89.0454 672.171 92.3949 669.75 95.6486C667.327 98.9042 664.098 103.333 662.573 105.494C661.049 107.654 659.544 109.657 659.231 109.942C658.916 110.23 658.659 110.587 658.659 110.736C658.659 110.998 657.988 111.899 657.086 112.844C656.849 113.092 656.745 113.296 656.855 113.296C656.964 113.296 656.894 113.479 656.7 113.704C656.505 113.927 655.628 115.138 654.749 116.393C653.87 117.646 652.935 118.896 652.669 119.168C650.406 121.471 648.874 124.185 648.874 125.888V127.636H684.438H720L719.91 123.317L719.818 118.999L691.847 118.915C676.465 118.87 663.879 118.765 663.879 118.681C663.879 118.466 665.889 115.56 666.57 114.793C666.883 114.441 667.139 114.043 667.139 113.91C667.139 113.777 667.327 113.475 667.554 113.239C668.147 112.623 673.441 105.5 674.173 104.334C674.936 103.116 677.095 100.144 678.312 98.6305C678.817 98.0028 679.34 97.3439 679.471 97.164C682.823 92.5943 684.101 90.8032 684.101 90.6742C684.101 90.5862 685.092 89.194 686.303 87.5808C687.514 85.9657 689.532 83.236 690.789 81.5153C692.043 79.7927 693.264 78.1736 693.503 77.9155C693.74 77.6594 693.861 77.4482 693.773 77.4482C693.646 77.4482 699.406 69.5681 701.161 67.3391C702.431 65.7278 703.345 64.4275 703.345 64.234C703.345 63.8879 705.717 60.6967 706.195 60.3995C706.43 60.2548 706.537 59.9987 706.432 59.8305C706.328 59.6624 706.379 59.5235 706.543 59.5235C706.71 59.5235 707.269 58.9017 707.786 58.1391C708.303 57.3765 708.813 56.6804 708.917 56.5905C709.023 56.5005 710.784 54.0818 712.829 51.2133C714.874 48.3467 717.323 44.9738 718.268 43.7184C719.906 41.5421 719.982 41.3544 719.902 39.6454L719.818 37.8524L685.814 37.7703L651.81 37.6862V41.9254ZM100.05 39.1292C97.4357 39.7256 95.5432 40.3826 93.545 41.3877C92.6448 41.8413 91.5449 42.3497 91.0987 42.5198C85.2588 44.745 76.6574 58.1841 77.4813 63.796C77.5577 64.3141 77.497 64.7384 77.3483 64.7384C76.8903 64.7384 77.3561 71.5587 78.0293 74.7048C79.094 79.6734 82.0218 86.1339 84.5914 89.1803C85.1218 89.808 85.703 90.4982 85.885 90.7152C86.0651 90.9303 86.2138 91.253 86.2138 91.4309C86.2138 91.6088 87.1689 92.7488 88.3334 93.967C89.4998 95.1852 90.4548 96.2743 90.4548 96.3897C90.4548 96.5031 91.3707 97.4084 92.4921 98.3998C93.6135 99.3931 95.3397 100.969 96.3261 101.904C97.3124 102.838 99.4398 104.682 101.054 106C104.849 109.097 104.826 109.078 110.188 113.483C112.699 115.548 115.079 117.486 115.474 117.791C115.871 118.098 116.825 118.909 117.596 119.596C126.369 127.417 130.782 129.404 136.65 128.174C140.591 127.349 141.02 127.067 152.028 118.065C152.876 117.371 154.158 116.324 154.874 115.738C155.592 115.151 157.132 113.892 158.299 112.938C159.465 111.986 161.008 110.652 161.724 109.973C162.442 109.295 163.127 108.74 163.246 108.738C164.552 108.716 179.017 94.9955 181.578 91.3488C182.32 90.2929 183.414 88.7501 184.009 87.9191C189.168 80.7234 191.929 68.2835 189.951 61.1543C189.728 60.3487 189.489 59.3964 189.422 59.0366C189.297 58.3562 188.669 56.7274 187.641 54.4161C186.624 52.1264 181.439 45.6386 180.989 46.0883C180.888 46.19 180.805 46.0922 180.805 45.8752C180.805 45.3863 179.161 43.9061 178.604 43.8925C178.38 43.8866 178.197 43.7302 178.197 43.5444C178.197 43.2844 176.005 42.0896 174.934 41.767C174.844 41.7396 173.891 41.3153 172.815 40.8206C167.495 38.3842 158.448 37.9619 152.85 39.8918C147.187 41.8433 144.746 43.5444 140.546 48.466C135.918 53.8882 132.734 54.2988 128.684 49.9951C127.796 49.0526 126.009 47.1501 124.71 45.7696C119.439 40.1656 108.466 37.211 100.05 39.1292ZM314.165 45.3512C318.271 46.1392 325.811 49.1152 327.572 50.6443C327.848 50.8848 328.956 51.7197 330.033 52.4999C332.244 54.1052 335.99 58.1294 337.055 60.0436C338.358 62.3861 339.129 63.5965 339.475 63.837C339.663 63.968 339.716 64.0795 339.593 64.0814C339.468 64.0854 339.74 64.9301 340.2 65.9605C343.581 73.5629 344.681 84.112 342.885 91.7125C342.024 95.3553 341.157 97.9579 340.115 100.017C339.505 101.225 339.113 102.219 339.248 102.221C339.382 102.224 339.333 102.334 339.139 102.465C338.945 102.598 338.164 103.757 337.403 105.044C335.782 107.785 332.187 111.575 329.53 113.341C326.801 115.153 325.794 117.177 325.794 120.837L325.795 123.653L323.786 122.056C320.367 119.338 318.709 118.925 314.376 119.721C310.149 120.497 302.177 120.482 298.557 119.69C297.032 119.355 295.396 119.033 294.923 118.97C292.054 118.595 286.74 115.883 282.573 112.666C281.282 111.669 277.356 107.879 277.356 107.629C277.356 107.504 276.782 106.628 276.082 105.681C268.073 94.8488 266.991 76.8421 273.588 64.1968C275.923 59.721 276.8 58.5165 280.454 54.774C282.507 52.67 283.761 51.7686 288.771 48.7887C289.578 48.3096 291.854 47.3867 293.827 46.7414C296.952 45.7168 298.588 45.3688 303.287 44.7235C305.154 44.4674 311.456 44.831 314.165 45.3512ZM597.246 46.9897C598.902 47.4395 600.906 48.0867 601.702 48.4269C602.497 48.7672 603.235 48.9607 603.342 48.8532C603.448 48.7476 603.534 48.8317 603.534 49.0409C603.534 49.2501 603.82 49.4222 604.168 49.4222C604.517 49.4222 604.894 49.5728 605.01 49.7585C605.123 49.9423 605.84 50.3862 606.601 50.744C613.654 54.0564 620.964 64.3571 623.123 74.0263C623.322 74.9219 623.563 75.9485 623.655 76.3082C624.72 80.391 623.851 89.9996 621.886 95.8617C621.404 97.295 621.005 98.5718 620.999 98.697C620.991 98.8221 620.802 99.1076 620.578 99.3325C620.353 99.5554 620.169 99.8584 620.169 100.005C620.169 100.152 619.565 101.26 618.825 102.467C618.085 103.673 617.167 105.195 616.786 105.848C613.455 111.555 603.62 117.801 596.056 119.011C594.34 119.287 592.494 119.59 591.956 119.686C591.418 119.783 589.07 119.836 586.737 119.805C580.359 119.719 580.081 119.701 580.255 119.422C580.343 119.279 580.002 119.152 579.499 119.138C577.607 119.085 574.427 118.137 571.242 116.672C551.427 107.563 544.401 81.0226 556.676 61.6451C557.94 59.6487 558.009 59.5646 560.547 56.8017C569.107 47.4883 584.214 43.4486 597.246 46.9897ZM110.182 47.3085C115.196 48.3683 118.75 50.8789 122.498 56.0039C129.401 65.4482 138.053 65.0572 146.095 54.9402C159.865 37.6158 186.07 50.3764 181.639 72.2489C180.707 76.8479 177.856 82.7609 175.106 85.8015C174.922 86.0048 174.265 86.8104 173.644 87.5945C171.705 90.0465 163.493 97.8581 160.068 100.51C158.107 102.029 154.079 105.374 152.03 107.185C150.864 108.216 149.78 109.06 149.619 109.06C149.461 109.062 148.596 109.708 147.699 110.494C146.801 111.282 145.701 112.232 145.253 112.605C144.805 112.979 143.922 113.728 143.296 114.269C136.135 120.45 132.728 120.691 126.109 115.49C119.273 110.118 115.705 107.218 111.656 103.74C107.977 100.582 106.775 99.6082 106.542 99.6023C106.061 99.5906 95.005 88.9711 93.7153 87.2797C93.2671 86.6911 92.4961 85.7232 92.0029 85.1269C91.5097 84.5305 91.1065 83.9752 91.1065 83.893C91.1065 83.8109 90.3707 82.5204 89.4704 81.0245C80.7027 66.4474 87.12 50.3314 103.011 47.0249C104.497 46.7179 108.051 46.8568 110.182 47.3085ZM507.273 115.836C498.878 120.218 506.038 132.779 514.577 128.649C517.515 127.227 520.145 121.706 518.397 120.626C518.213 120.513 518.147 120.288 518.247 120.128C518.531 119.668 517.45 117.797 516.264 116.696C514.104 114.69 510.188 114.314 507.273 115.836Z" fill="#4464B4"/>
</g>
<defs>
<filter id="filter0_d" x="0" y="0" width="740" height="179.381" filterUnits="userSpaceOnUse" color-interpolation-filters="sRGB">
<feFlood flood-opacity="0" result="BackgroundImageFix"/>
<feColorMatrix in="SourceAlpha" type="matrix" values="0 0 0 0 0 0 0 0 0 0 0 0 0 0 0 0 0 0 127 0"/>
<feOffset dy="20"/>
<feGaussianBlur stdDeviation="10"/>
<feColorMatrix type="matrix" values="0 0 0 0 0 0 0 0 0 0 0 0 0 0 0 0 0 0 0.25 0"/>
<feBlend mode="normal" in2="BackgroundImageFix" result="effect1_dropShadow"/>
<feBlend mode="normal" in="SourceGraphic" in2="effect1_dropShadow" result="shape"/>
</filter>
</defs>
</svg>
