<svg width="700" height="140" viewBox="0 0 700 140" fill="none" xmlns="http://www.w3.org/2000/svg">
<path fill-rule="evenodd" clip-rule="evenodd" d="M40.2825 0.190422C35.9006 0.896303 30.1625 3.15278 28.0899 4.98885C26.2444 6.62157 24.4537 8.54954 24.2776 9.09313C24.1758 9.40598 23.9683 9.66213 23.8157 9.66213C22.4496 9.66213 18.8662 20.395 18.7958 24.6968C18.7723 26.0695 18.6568 27.1332 18.5374 27.0608C18.4181 26.9904 18.3222 27.5555 18.3241 28.3181C18.3261 29.0807 18.3124 31.7224 18.2967 34.1861L18.2654 38.6678H9.13173H0V42.7408V46.8137H9.13173H18.2635L18.3457 87.1428L18.4279 127.472L23.0759 127.564L27.724 127.654V87.2347V46.8137H42.4021H57.0802V42.7408V38.6678H42.3668H27.6535L27.8101 31.4154C27.9862 23.2518 28.2759 21.6426 30.3543 17.2841C34.2763 9.05403 44.8973 6.1953 54.3246 10.8295C55.7513 11.5314 57.0997 12.0848 57.3228 12.0613C57.544 12.0379 57.6594 12.1259 57.5773 12.2569C57.3404 12.6401 59.0451 13.432 59.3034 13.0586C61.7478 9.5409 63.6011 6.62353 63.5914 6.31263C63.5581 5.38579 56.3717 1.79185 52.3225 0.677305C50.1306 0.0750579 42.8326 -0.220201 40.2825 0.190422ZM177.44 63.923V127.636H182.171H186.901V63.923V0.211934H182.171H177.44V63.923ZM211.2 63.923V127.636H215.848H220.496V63.923V0.211934H215.848H211.2V63.923ZM281.346 36.3976C275.596 37.0526 270.498 38.5211 265.599 40.934C263.763 41.8374 262.184 42.5785 262.088 42.5785C261.928 42.5785 260.432 43.5952 258.17 45.2475C256.51 46.4598 249.201 53.9606 249.201 54.4533C249.201 54.5472 248.666 55.4583 248.011 56.481C244.727 61.6118 241.791 69.5564 241.167 75.004C240.572 80.1857 240.758 91.6792 241.427 91.2647C241.594 91.161 241.639 91.427 241.527 91.8669C240.932 94.2329 244.987 105.069 248.069 109.358C248.692 110.222 249.201 111.039 249.201 111.172C249.201 111.413 251.078 113.757 252.952 115.857C253.491 116.461 254.518 117.361 255.236 117.855C255.953 118.35 257.127 119.285 257.845 119.93C258.561 120.575 259.332 121.105 259.558 121.109C259.781 121.115 259.965 121.238 259.965 121.385C259.965 122.001 268.746 126.412 270.695 126.774C270.983 126.827 271.805 127.034 272.523 127.235C279.256 129.109 292.605 129.5 296.713 127.941C297.198 127.757 297.472 127.806 297.584 128.1C297.738 128.502 307.721 136.76 308.052 136.76C308.136 136.76 308.586 137.114 309.054 137.546C311.224 139.556 314.223 139.99 315.424 138.471C316.254 137.423 316.193 133.526 315.26 128.01C314.99 126.416 314.886 125.591 314.591 122.748L314.371 120.628L316.53 118.88C318.767 117.069 323.57 112.101 323.57 111.598C323.57 111.442 323.857 111.004 324.21 110.627C330.228 104.174 333.964 84.7221 331.447 72.9587C330.21 67.1846 326.331 57.181 325.12 56.6452C324.985 56.5866 324.875 56.3285 324.875 56.0743C324.875 55.822 324.728 55.6128 324.548 55.6128C324.368 55.6128 324.221 55.4505 324.221 55.253C324.221 54.4044 319.628 49.4398 315.252 45.5604C308.207 39.313 292.656 35.111 281.346 36.3976ZM561.028 37.0624C555.752 37.7312 550.503 39.3326 545.698 41.7377C544.532 42.3223 543.027 43.0419 542.355 43.3352C541.682 43.6304 541.132 44.0196 541.132 44.2014C541.132 44.3833 541.009 44.4967 540.86 44.4517C540.259 44.2718 532.664 51.0725 531.014 53.2703C530.57 53.8628 530.057 54.5296 529.879 54.7486C529.699 54.9676 529.331 55.5346 529.063 56.0078C528.793 56.481 527.826 58.1626 526.91 59.7445C524.55 63.8253 522.685 68.9151 522.027 73.0585C521.914 73.7702 521.771 74.435 521.71 74.5367C521.648 74.6384 521.442 76.5448 521.252 78.7739C520.931 82.5653 521.015 84.7377 521.724 90.9675C522.282 95.8754 525.427 104.268 528.239 108.352C528.871 109.27 529.39 110.097 529.39 110.189C529.39 111.041 535.32 117.349 537.647 118.97C538.138 119.312 538.934 119.957 539.414 120.403C548.004 128.356 570.312 131.748 581.982 126.877C582.567 126.633 583.157 126.412 583.292 126.385C587.368 125.595 597.197 117.94 601.35 112.32L603.269 109.725L603.356 118.681L603.442 127.636H608.166H612.89V82.6631V37.6901H608.166H603.442L603.356 47.0582L603.269 56.4282L602.528 55.0438C602.121 54.2812 601.643 53.6575 601.469 53.6575C601.293 53.6575 601.148 53.4698 601.148 53.239C601.148 52.6681 594.167 45.5975 592.341 44.3207C584.333 38.7167 571.485 35.7387 561.028 37.0624ZM338.248 38.0831C338.248 38.3002 338.821 40.0228 339.524 41.9117C342.25 49.2599 344.414 55.2218 345.146 57.4059C345.569 58.6612 346.023 59.7367 346.16 59.7973C346.295 59.8559 346.332 60.0241 346.242 60.1707C346.086 60.423 347.428 64.3552 350.305 72.071C353.196 79.8239 355.554 86.4193 355.676 87.0881C355.746 87.4752 355.95 88.0677 356.13 88.404C356.31 88.7423 356.754 89.984 357.118 91.163C357.482 92.3441 358.746 95.936 359.928 99.1467C363.197 108.02 364.829 112.56 365.715 115.251C366.16 116.596 367.316 119.932 368.287 122.666L370.05 127.634H375.313L380.575 127.636L381.29 125.878C381.681 124.91 382.033 123.921 382.071 123.679C382.108 123.434 382.253 123.051 382.394 122.826C382.534 122.599 383.208 120.767 383.889 118.751C384.57 116.737 385.574 113.915 386.12 112.482C386.666 111.047 388.175 107.087 389.472 103.683C390.77 100.277 391.835 97.3067 391.84 97.0838C391.846 96.859 391.942 96.6751 392.054 96.6751C392.167 96.6751 392.527 95.8324 392.854 94.8019C393.864 91.6245 394.283 90.4024 395.14 88.1264C395.594 86.9199 396.03 85.6 396.107 85.1933C396.183 84.7866 396.825 82.8411 397.534 80.8701C398.24 78.8991 398.831 77.1725 398.845 77.0337C398.858 76.8948 399.26 75.6063 399.739 74.171C400.217 72.7339 400.645 71.3807 400.692 71.1637C400.737 70.9467 400.929 70.3913 401.119 69.9338C401.309 69.4743 401.643 68.4477 401.863 67.6519C402.082 66.8561 402.463 65.7435 402.71 65.1784C402.957 64.6133 403.158 63.8859 403.158 63.5613C403.158 63.2367 403.773 61.1113 404.524 58.8372L405.89 54.6997L408.611 63.0607C411.893 73.1445 412.865 76.318 413.495 78.9969C413.76 80.1173 414.11 81.0323 414.274 81.0323C414.439 81.0323 414.574 81.3276 414.574 81.6894C414.574 82.7453 415.633 86.2473 415.952 86.2473C416.112 86.2473 416.153 86.392 416.044 86.5679C415.936 86.7459 416.353 88.1752 416.971 89.7454C418.584 93.8321 420.615 99.2132 422.101 103.325C422.805 105.279 423.567 107.103 423.79 107.379C424.03 107.676 424.046 107.791 423.831 107.662C423.488 107.457 424.15 109.315 429.115 122.497L431.047 127.624L436.264 127.622L441.484 127.62L443.02 123.147C445.151 116.938 450.091 103.253 450.666 101.968C450.927 101.384 451.05 100.76 450.94 100.582C450.831 100.406 450.897 100.261 451.087 100.261C451.277 100.261 451.431 100.029 451.431 99.745C451.431 99.2464 454.715 89.6926 455.342 88.3649C456.035 86.9023 459.87 76.0189 459.937 75.3306C459.955 75.1507 460.076 74.8573 460.207 74.6775C460.34 74.4995 460.643 73.692 460.882 72.8864C461.401 71.1422 463.575 64.9829 465.828 58.8724C466.72 56.4517 468.035 52.891 468.748 50.9552C469.462 49.0214 469.969 47.3143 469.875 47.1637C469.781 47.0112 469.924 46.7062 470.192 46.4852C470.458 46.2643 470.677 45.7911 470.677 45.4352C470.677 45.0774 471.19 43.4154 471.818 41.7416C473.464 37.3479 473.779 37.6901 468.09 37.6901C462.587 37.6901 462.407 37.7585 462.023 40.0326C461.894 40.7893 461.456 42.2949 461.049 43.3782C460.64 44.4615 460.287 45.4567 460.264 45.5897C460.24 45.7207 460.152 46.014 460.068 46.2408C459.984 46.4657 459.489 47.897 458.968 49.4222C458.448 50.9454 457.502 53.6223 456.868 55.3684C456.234 57.1165 455.798 58.5458 455.898 58.5458C455.997 58.5458 455.933 58.7297 455.755 58.9545C455.463 59.3241 454.25 62.6423 454.218 63.1624C454.211 63.2837 454.105 63.4812 453.982 63.6024C453.86 63.7256 453.839 64.0306 453.937 64.2809C454.032 64.5331 453.982 64.7384 453.821 64.7384C453.492 64.7384 452.553 67.6226 452.682 68.2424C452.727 68.4653 452.612 68.6491 452.426 68.6491C452.238 68.6491 452.085 68.9796 452.085 69.3824C452.085 69.7852 451.774 70.9213 451.392 71.9087C451.013 72.8942 449.386 77.5127 447.78 82.1743C446.173 86.8339 444.349 92.1133 443.726 93.9064C443.102 95.6975 442.529 97.6411 442.448 98.2257C442.368 98.8084 442.155 99.5417 441.973 99.8545C441.793 100.167 440.56 103.576 439.237 107.43C435.961 116.966 436.139 116.61 435.628 114.6C435.464 113.96 434.346 110.789 434.192 110.527C434.086 110.347 433.97 110.054 433.933 109.874C433.898 109.696 433.426 108.264 432.884 106.696C432.344 105.128 431.96 103.845 432.031 103.845C432.101 103.845 431.931 103.222 431.651 102.461C431.371 101.698 430.291 98.6559 429.248 95.6975C428.207 92.741 426.516 87.9739 425.492 85.1073C424.469 82.2388 423.007 77.9116 422.244 75.4929C421.48 73.0721 420.68 70.6534 420.465 70.1156C420.249 69.5779 420.087 69.138 420.103 69.138C420.157 69.138 417.885 62.6032 416.873 59.8501C415.832 57.0148 415.709 56.6687 415.537 56.1016C415.482 55.9237 414.934 54.3829 414.319 52.6798C413.705 50.9767 413.081 48.9979 412.934 48.2803C412.785 47.5646 412.484 46.5381 412.261 46.0003C412.037 45.4626 411.832 44.9483 411.801 44.8584C411.769 44.7684 411.648 44.44 411.529 44.1252C410.979 42.6801 410.881 42.3751 410.769 41.8042C410.705 41.4678 410.444 40.7346 410.192 40.1734C409.939 39.6142 409.638 38.8262 409.523 38.4234C409.272 37.5552 403.227 37.2697 402.606 38.0968C402.295 38.5113 400.608 43.0869 398.07 50.3999C397.293 52.6407 396.361 55.2648 396.003 56.2327C395.645 57.1986 395.42 58.1039 395.504 58.2408C395.59 58.3777 395.541 58.54 395.398 58.6006C395.254 58.6612 394.242 61.4222 393.15 64.7384C391.144 70.8352 387.703 80.6491 387.153 81.8477C386.505 83.2575 385.883 85.3517 386.038 85.602C386.128 85.7467 386.089 85.9148 385.954 85.9755C385.818 86.0361 384.585 89.3837 383.216 93.4175C381.846 97.4495 380.047 102.657 379.219 104.985C378.389 107.316 377.156 110.803 376.477 112.734L375.24 116.246L374.683 114.69C374.375 113.833 374.125 112.836 374.127 112.472C374.127 112.109 373.9 111.485 373.62 111.088C373.34 110.689 373.187 110.363 373.281 110.363C373.373 110.363 372.563 107.834 371.477 104.741C370.393 101.65 368.952 97.5062 368.275 95.5352C367.6 93.5642 366.451 90.2636 365.723 88.2026C364.995 86.1417 364.146 83.5743 363.837 82.4989C363.527 81.4234 363.13 80.3617 362.952 80.1368C362.776 79.9119 362.713 79.7301 362.815 79.7301C362.915 79.7301 362.482 78.2988 361.856 76.5527C361.228 74.8046 360.519 72.7886 360.284 72.071C360.05 71.3534 359.668 70.3268 359.439 69.7891C359.21 69.2514 358.989 68.6491 358.946 68.4516C358.823 67.8729 357.165 63.0099 356.848 62.2942C356.407 61.299 354.908 56.5455 354.713 55.519C354.617 55.0184 354.433 54.6743 354.302 54.7525C354.173 54.8326 354.051 54.4416 354.03 53.8843C354.008 53.329 353.824 52.8167 353.619 52.7482C353.415 52.6798 353.327 52.4979 353.421 52.3435C353.517 52.189 352.574 49.2325 351.327 45.7735C350.078 42.3125 348.959 39.0784 348.836 38.5856L348.614 37.6901H343.432C339.598 37.6901 338.248 37.7918 338.248 38.0831ZM631.81 41.9254V46.1626H658.729H685.649L685.044 47.0582C684.711 47.5509 683.944 48.6889 683.337 49.5845C682.733 50.48 681.68 51.884 680.997 52.7013C680.316 53.5186 679.758 54.3497 679.758 54.5491C679.758 54.7466 679.625 54.9558 679.46 55.0164C679.073 55.1572 676.171 59.111 676.171 59.4981C676.171 59.6624 676.049 59.8442 675.901 59.9048C675.668 59.9987 674.717 61.2736 670.599 67.0203C670.164 67.6265 668.745 69.4958 667.444 71.1755C666.145 72.8551 665.08 74.3431 665.08 74.4819C665.08 74.744 659.989 81.7695 659.113 82.7159C658.837 83.0151 658.696 83.3455 658.802 83.4492C658.905 83.5548 658.845 83.6408 658.666 83.6408C658.322 83.6408 656.77 85.645 655.132 88.2046C654.594 89.0454 652.171 92.3949 649.75 95.6486C647.327 98.9042 644.098 103.333 642.573 105.494C641.049 107.654 639.544 109.657 639.231 109.942C638.916 110.23 638.659 110.587 638.659 110.736C638.659 110.998 637.988 111.899 637.086 112.844C636.849 113.092 636.745 113.296 636.855 113.296C636.964 113.296 636.894 113.479 636.7 113.704C636.505 113.927 635.628 115.138 634.749 116.393C633.87 117.646 632.935 118.896 632.669 119.168C630.406 121.471 628.874 124.185 628.874 125.888V127.636H664.438H700L699.91 123.317L699.818 118.999L671.847 118.915C656.465 118.87 643.879 118.765 643.879 118.681C643.879 118.466 645.889 115.56 646.57 114.793C646.883 114.441 647.139 114.043 647.139 113.91C647.139 113.777 647.327 113.475 647.554 113.239C648.147 112.623 653.441 105.5 654.173 104.334C654.936 103.116 657.095 100.144 658.312 98.6305C658.817 98.0028 659.34 97.3439 659.471 97.164C662.823 92.5943 664.101 90.8032 664.101 90.6742C664.101 90.5862 665.092 89.194 666.303 87.5808C667.514 85.9657 669.532 83.236 670.789 81.5153C672.043 79.7927 673.264 78.1736 673.503 77.9155C673.74 77.6594 673.861 77.4482 673.773 77.4482C673.646 77.4482 679.406 69.5681 681.161 67.3391C682.431 65.7278 683.345 64.4275 683.345 64.234C683.345 63.8879 685.717 60.6967 686.195 60.3995C686.43 60.2548 686.537 59.9987 686.432 59.8305C686.328 59.6624 686.379 59.5235 686.543 59.5235C686.71 59.5235 687.269 58.9017 687.786 58.1391C688.303 57.3765 688.813 56.6804 688.917 56.5905C689.023 56.5005 690.784 54.0818 692.829 51.2133C694.874 48.3467 697.323 44.9738 698.268 43.7184C699.906 41.5421 699.982 41.3544 699.902 39.6454L699.818 37.8524L665.814 37.7703L631.81 37.6862V41.9254ZM80.0504 39.1292C77.4357 39.7256 75.5432 40.3826 73.545 41.3877C72.6448 41.8413 71.5449 42.3497 71.0987 42.5198C65.2588 44.745 56.6574 58.1841 57.4813 63.796C57.5577 64.3141 57.497 64.7384 57.3483 64.7384C56.8903 64.7384 57.3561 71.5587 58.0293 74.7048C59.094 79.6734 62.0218 86.1339 64.5914 89.1803C65.1218 89.808 65.703 90.4982 65.885 90.7152C66.0651 90.9303 66.2138 91.253 66.2138 91.4309C66.2138 91.6088 67.1689 92.7488 68.3334 93.967C69.4998 95.1852 70.4548 96.2743 70.4548 96.3897C70.4548 96.5031 71.3707 97.4084 72.4921 98.3998C73.6135 99.3931 75.3397 100.969 76.3261 101.904C77.3124 102.838 79.4398 104.682 81.0544 106C84.8491 109.097 84.8257 109.078 90.188 113.483C92.699 115.548 95.0788 117.486 95.4741 117.791C95.8714 118.098 96.8245 118.909 97.5956 119.596C106.369 127.417 110.782 129.404 116.65 128.174C120.591 127.349 121.02 127.067 132.028 118.065C132.876 117.371 134.158 116.324 134.874 115.738C135.592 115.151 137.132 113.892 138.299 112.938C139.465 111.986 141.008 110.652 141.724 109.973C142.442 109.295 143.127 108.74 143.246 108.738C144.552 108.716 159.017 94.9955 161.578 91.3488C162.32 90.2929 163.414 88.7501 164.009 87.9191C169.168 80.7234 171.929 68.2835 169.951 61.1543C169.728 60.3487 169.489 59.3964 169.422 59.0366C169.297 58.3562 168.669 56.7274 167.641 54.4161C166.624 52.1264 161.439 45.6386 160.989 46.0883C160.888 46.19 160.805 46.0922 160.805 45.8752C160.805 45.3863 159.161 43.9061 158.604 43.8925C158.38 43.8866 158.197 43.7302 158.197 43.5444C158.197 43.2844 156.005 42.0896 154.934 41.767C154.844 41.7396 153.891 41.3153 152.815 40.8206C147.495 38.3842 138.448 37.9619 132.85 39.8918C127.187 41.8433 124.746 43.5444 120.546 48.466C115.918 53.8882 112.734 54.2988 108.684 49.9951C107.796 49.0526 106.009 47.1501 104.71 45.7696C99.4392 40.1656 88.4658 37.211 80.0504 39.1292ZM294.165 45.3512C298.271 46.1392 305.811 49.1152 307.572 50.6443C307.848 50.8848 308.956 51.7197 310.033 52.4999C312.244 54.1052 315.99 58.1294 317.055 60.0436C318.358 62.3861 319.129 63.5965 319.475 63.837C319.663 63.968 319.716 64.0795 319.593 64.0814C319.468 64.0854 319.74 64.9301 320.2 65.9605C323.581 73.5629 324.681 84.112 322.885 91.7125C322.024 95.3553 321.157 97.9579 320.115 100.017C319.505 101.225 319.113 102.219 319.248 102.221C319.382 102.224 319.333 102.334 319.139 102.465C318.945 102.598 318.164 103.757 317.403 105.044C315.782 107.785 312.187 111.575 309.53 113.341C306.801 115.153 305.794 117.177 305.794 120.837L305.795 123.653L303.786 122.056C300.367 119.338 298.709 118.925 294.376 119.721C290.149 120.497 282.177 120.482 278.557 119.69C277.032 119.355 275.396 119.033 274.923 118.97C272.054 118.595 266.74 115.883 262.573 112.666C261.282 111.669 257.356 107.879 257.356 107.629C257.356 107.504 256.782 106.628 256.082 105.681C248.073 94.8488 246.991 76.8421 253.588 64.1968C255.923 59.721 256.8 58.5165 260.454 54.774C262.507 52.67 263.761 51.7686 268.771 48.7887C269.578 48.3096 271.854 47.3867 273.827 46.7414C276.952 45.7168 278.588 45.3688 283.287 44.7235C285.154 44.4674 291.456 44.831 294.165 45.3512ZM577.246 46.9897C578.902 47.4395 580.906 48.0867 581.702 48.4269C582.497 48.7672 583.235 48.9607 583.342 48.8532C583.448 48.7476 583.534 48.8317 583.534 49.0409C583.534 49.2501 583.82 49.4222 584.168 49.4222C584.517 49.4222 584.894 49.5728 585.01 49.7585C585.123 49.9423 585.84 50.3862 586.601 50.744C593.654 54.0564 600.964 64.3571 603.123 74.0263C603.322 74.9219 603.563 75.9485 603.655 76.3082C604.72 80.391 603.851 89.9996 601.886 95.8617C601.404 97.295 601.005 98.5718 600.999 98.697C600.991 98.8221 600.802 99.1076 600.578 99.3325C600.353 99.5554 600.169 99.8584 600.169 100.005C600.169 100.152 599.565 101.26 598.825 102.467C598.085 103.673 597.167 105.195 596.786 105.848C593.455 111.555 583.62 117.801 576.056 119.011C574.34 119.287 572.494 119.59 571.956 119.686C571.418 119.783 569.07 119.836 566.737 119.805C560.359 119.719 560.081 119.701 560.255 119.422C560.343 119.279 560.002 119.152 559.499 119.138C557.607 119.085 554.427 118.137 551.242 116.672C531.427 107.563 524.401 81.0226 536.676 61.6451C537.94 59.6487 538.009 59.5646 540.547 56.8017C549.107 47.4883 564.214 43.4486 577.246 46.9897ZM90.1822 47.3085C95.1962 48.3683 98.7503 50.8789 102.498 56.0039C109.401 65.4482 118.053 65.0572 126.095 54.9402C139.865 37.6158 166.07 50.3764 161.639 72.2489C160.707 76.8479 157.856 82.7609 155.106 85.8015C154.922 86.0048 154.265 86.8104 153.644 87.5945C151.705 90.0465 143.493 97.8581 140.068 100.51C138.107 102.029 134.079 105.374 132.03 107.185C130.864 108.216 129.78 109.06 129.619 109.06C129.461 109.062 128.596 109.708 127.699 110.494C126.801 111.282 125.701 112.232 125.253 112.605C124.805 112.979 123.922 113.728 123.296 114.269C116.135 120.45 112.728 120.691 106.109 115.49C99.2728 110.118 95.7051 107.218 91.6559 103.74C87.9765 100.582 86.7749 99.6082 86.542 99.6023C86.0606 99.5906 75.005 88.9711 73.7153 87.2797C73.2671 86.6911 72.4961 85.7232 72.0029 85.1269C71.5097 84.5305 71.1065 83.9752 71.1065 83.893C71.1065 83.8109 70.3707 82.5204 69.4704 81.0245C60.7027 66.4474 67.12 50.3314 83.0114 47.0249C84.4969 46.7179 88.0509 46.8568 90.1822 47.3085ZM487.273 115.836C478.878 120.218 486.038 132.779 494.577 128.649C497.515 127.227 500.145 121.706 498.397 120.626C498.213 120.513 498.147 120.288 498.247 120.128C498.531 119.668 497.45 117.797 496.264 116.696C494.104 114.69 490.188 114.314 487.273 115.836Z" fill="#4464B4"/>
</svg>
