<svg width="19" height="19" viewBox="0 0 19 19" fill="none" xmlns="http://www.w3.org/2000/svg">
<path d="M9.5 19C14.7467 19 19 14.7467 19 9.5C19 4.25329 14.7467 0 9.5 0C4.25329 0 0 4.25329 0 9.5C0 14.7467 4.25329 19 9.5 19Z" fill="white"/>
<path d="M13.6053 4.02502H5.3939C4.6206 4.02502 4.02505 4.62057 4.02505 5.39387V13.6053C4.02505 14.3778 4.6206 14.9741 5.3939 14.9741H13.6053C14.3778 14.9741 14.9742 14.3778 14.9742 13.6053V5.39387C14.9742 4.62057 14.3778 4.02502 13.6053 4.02502ZM9.50781 7.34925C10.7218 7.34925 11.7065 8.30277 11.7065 9.47911C11.7065 10.6554 10.7226 11.609 9.50781 11.609C8.29461 11.609 7.30996 10.6546 7.30996 9.47911C7.30996 8.30277 8.29461 7.34925 9.50781 7.34925ZM13.6053 13.2629C13.6053 13.5029 13.5029 13.6053 13.2629 13.6053H5.7355C5.4963 13.6053 5.39308 13.5029 5.39308 13.2629V8.47316L6.24584 8.65829C6.1541 8.95565 6.10495 9.27104 6.10495 9.59789C6.10495 11.4173 7.62862 12.8943 9.50699 12.8943C11.3862 12.8943 12.909 11.4181 12.909 9.59789C12.909 9.27104 12.8591 8.95647 12.7681 8.65829L13.6045 8.47316V13.2629H13.6053ZM13.6053 7.10431C13.6053 7.29354 13.4521 7.44673 13.2629 7.44673H11.8941C11.7048 7.44673 11.5517 7.29354 11.5517 7.10431V5.73547C11.5517 5.54624 11.7048 5.39305 11.8941 5.39305H13.2629C13.4521 5.39305 13.6053 5.54624 13.6053 5.73547V7.10431Z" fill="#F4C454"/>
</svg>
