<svg width="15" height="15" viewBox="0 0 15 15" fill="none" xmlns="http://www.w3.org/2000/svg">
<path d="M7.48738 4.85272C6.02533 4.85272 4.84011 6.03795 4.84011 7.5C4.84011 8.96205 6.02533 10.1473 7.48738 10.1473C8.94944 10.1473 10.1347 8.96205 10.1347 7.5C10.1347 6.03795 8.94944 4.85272 7.48738 4.85272Z" fill="white"/>
<path fill-rule="evenodd" clip-rule="evenodd" d="M3.22692 0.235432C6.03558 -0.0784772 8.93921 -0.0784772 11.7479 0.235432C13.2942 0.408257 14.5414 1.62664 14.7229 3.1784C15.0587 6.04968 15.0587 8.95032 14.7229 11.8216C14.5414 13.3734 13.2942 14.5917 11.7479 14.7646C8.93921 15.0785 6.03558 15.0785 3.22692 14.7646C1.68059 14.5917 0.433359 13.3734 0.251867 11.8216C-0.0839557 8.95032 -0.0839557 6.04968 0.251867 3.1784C0.433359 1.62664 1.68059 0.408257 3.22692 0.235432ZM11.5601 2.61271C11.1103 2.61271 10.7456 2.9774 10.7456 3.42726C10.7456 3.87712 11.1103 4.24181 11.5601 4.24181C12.01 4.24181 12.3747 3.87712 12.3747 3.42726C12.3747 2.9774 12.01 2.61271 11.5601 2.61271ZM3.61828 7.5C3.61828 5.36315 5.35054 3.6309 7.48738 3.6309C9.62423 3.6309 11.3565 5.36315 11.3565 7.5C11.3565 9.63685 9.62423 11.3691 7.48738 11.3691C5.35054 11.3691 3.61828 9.63685 3.61828 7.5Z" fill="white"/>
</svg>
