<svg width="15" height="15" viewBox="0 0 15 15" fill="none" xmlns="http://www.w3.org/2000/svg">
<path d="M1.65584 0C0.741347 0 0 0.741347 0 1.65584C0 2.57034 0.741347 3.31169 1.65584 3.31169C2.57034 3.31169 3.31169 2.57034 3.31169 1.65584C3.31169 0.741347 2.57034 0 1.65584 0Z" fill="white"/>
<path d="M0.0974026 4.67532C0.0436086 4.67532 0 4.71893 0 4.77273V14.9026C0 14.9564 0.0436086 15 0.0974026 15H3.21429C3.26808 15 3.31169 14.9564 3.31169 14.9026V4.77273C3.31169 4.71893 3.26808 4.67532 3.21429 4.67532H0.0974026Z" fill="white"/>
<path d="M5.16234 4.67532C5.10854 4.67532 5.06494 4.71893 5.06494 4.77273V14.9026C5.06494 14.9564 5.10854 15 5.16234 15H8.27922C8.33302 15 8.37662 14.9564 8.37662 14.9026V9.44805C8.37662 9.06056 8.53055 8.68894 8.80455 8.41494C9.07855 8.14094 9.45017 7.98701 9.83766 7.98701C10.2252 7.98701 10.5968 8.14094 10.8708 8.41494C11.1448 8.68894 11.2987 9.06056 11.2987 9.44805V14.9026C11.2987 14.9564 11.3423 15 11.3961 15H14.513C14.5668 15 14.6104 14.9564 14.6104 14.9026V8.18591C14.6104 6.29494 12.9658 4.81558 11.0843 4.98662C10.504 5.03937 9.93036 5.18362 9.39465 5.4132L8.37662 5.8495V4.77273C8.37662 4.71893 8.33302 4.67532 8.27922 4.67532H5.16234Z" fill="white"/>
</svg>
