<svg width="19" height="19" viewBox="0 0 19 19" fill="none" xmlns="http://www.w3.org/2000/svg">
<path d="M9.5 19C14.7467 19 19 14.7467 19 9.5C19 4.25329 14.7467 0 9.5 0C4.25329 0 0 4.25329 0 9.5C0 14.7467 4.25329 19 9.5 19Z" fill="white"/>
<path d="M15.0491 13.9841V9.88001C15.0491 7.68134 13.8752 6.65819 12.3105 6.65819C11.0474 6.65819 10.4821 7.35285 10.1668 7.84026V6.82612H7.78786C7.81899 7.49784 7.78786 13.9833 7.78786 13.9833H10.1668V9.98568C10.1668 9.7727 10.1823 9.55889 10.2454 9.40571C10.4174 8.9781 10.8082 8.53574 11.4652 8.53574C12.3261 8.53574 12.6702 9.1919 12.6702 10.1536V13.9833L15.0491 13.9841ZM5.28118 5.85048C6.11019 5.85048 6.62709 5.29999 6.62709 4.61352C6.61152 3.91148 6.11019 3.37738 5.29675 3.37738C4.4833 3.37738 3.95084 3.91148 3.95084 4.61352C3.95084 5.30081 4.46692 5.85048 5.26562 5.85048H5.28118ZM6.47063 13.9841V6.82694H4.09173V13.9841H6.47063Z" fill="#F4C454"/>
</svg>
