<svg width="23" height="18" viewBox="0 0 23 18" fill="none" xmlns="http://www.w3.org/2000/svg">
<path d="M15.0385 9.8181L18.1347 9.8181C18.5033 9.8181 18.8167 9.93739 19.0747 10.176C19.3326 10.4147 19.4618 10.7045 19.4618 11.0455L19.4618 11.4544C19.4618 12.3579 19.1161 13.1291 18.4249 13.7684C17.7338 14.4074 16.8998 14.7271 15.9231 14.7271L15.0385 14.7271C14.799 14.7271 14.5917 14.8081 14.4166 14.97C14.2415 15.1319 14.154 15.3236 14.154 15.5452L14.154 17.1817C14.154 17.4033 14.2416 17.5952 14.4166 17.7571C14.5917 17.9189 14.7989 18 15.0385 18L15.9231 18C16.8815 18 17.7959 17.8272 18.6668 17.4822C19.5376 17.137 20.2908 16.6703 20.9267 16.0822C21.5625 15.4943 22.0669 14.7976 22.4402 13.9921C22.8134 13.1867 23 12.3408 23 11.4544L23 2.45464C23 1.77246 22.7421 1.19322 22.2261 0.715767C21.71 0.238577 21.0832 1.73978e-06 20.3461 1.67534e-06L15.0382 1.2113e-06C14.3011 1.14687e-06 13.6745 0.238576 13.1584 0.715766C12.6425 1.19322 12.3844 1.77246 12.3844 2.45464L12.3844 7.36351C12.3844 8.04555 12.6425 8.62479 13.1588 9.10229C13.6746 9.57944 14.3014 9.8181 15.0385 9.8181Z" fill="white"/>
<path d="M0.773258 9.1023C1.28914 9.57944 1.91575 9.8181 2.65303 9.8181L5.74917 9.8181C6.11759 9.8181 6.43126 9.93739 6.68886 10.1761C6.947 10.4147 7.07587 10.7045 7.07587 11.0455L7.07587 11.4544C7.07587 12.3579 6.73025 13.1291 6.0394 13.7684C5.3485 14.4074 4.51455 14.7271 3.53733 14.7271L2.65298 14.7271C2.41338 14.7271 2.20598 14.8081 2.03097 14.97C1.85606 15.1319 1.76819 15.3236 1.76819 15.5452L1.76819 17.1817C1.76819 17.4033 1.85601 17.5952 2.03097 17.7571C2.20594 17.9189 2.41334 18 2.65298 18L3.53733 18C4.49629 18 5.41047 17.8272 6.28161 17.4822C7.15227 17.137 7.90523 16.6703 8.54113 16.0822C9.17703 15.4943 9.68169 14.7976 10.0548 13.9921C10.4279 13.1867 10.6147 12.3408 10.6147 11.4544L10.6147 2.45464C10.6147 1.77246 10.3566 1.19323 9.84072 0.715767C9.32479 0.238579 8.69818 3.64715e-06 7.96096 3.5827e-06L2.65332 3.11869e-06C1.91604 3.05423e-06 1.28948 0.238578 0.773597 0.715766C0.257324 1.19322 -0.000279915 1.77246 -0.000279975 2.45464L-0.000280404 7.36351C-0.000329101 8.0456 0.257323 8.62479 0.773258 9.1023Z" fill="white"/>
</svg>
